<?xml version="1.0" encoding="utf-8"?>
<!-- Generator: Adobe Illustrator 16.0.0, SVG Export Plug-In . SVG Version: 6.00 Build 0)  -->
<!DOCTYPE svg PUBLIC "-//W3C//DTD SVG 1.1//EN" "http://www.w3.org/Graphics/SVG/1.1/DTD/svg11.dtd">
<svg version="1.1" id="Layer_1" xmlns="http://www.w3.org/2000/svg" xmlns:xlink="http://www.w3.org/1999/xlink" x="0px" y="0px"
	 width="90.667px" height="188.499px" viewBox="0 0 90.667 188.499" enable-background="new 0 0 90.667 188.499"
	 xml:space="preserve">
<g>
	<g>
		<g>
			<path fill="#FFFFFF" d="M68.061,26.339H44.157H20.249l0.461,72.125c0.056,10.23,5.749,41.296,11.642,61.884
				c2.551,9.342,5.162,16.528,7.374,18.567c1.179,1.096,2.812,1.617,4.432,1.577c1.62,0.04,3.291-0.481,4.438-1.577
				c2.227-2.039,4.808-9.225,7.379-18.567c5.878-20.588,11.591-51.654,11.646-61.884L68.061,26.339z"/>
		</g>
		<g>
			<path fill="#010101" d="M44.279,182.257L44.279,182.257c-0.046,0-0.073,0-0.122,0c-0.03,0-0.078,0-0.108,0
				c-2.11,0-4.142-0.756-5.511-2.054c-2.325-2.181-4.889-8.495-7.881-19.378c-5.71-20.09-11.635-51.569-11.695-62.361l-0.475-73.866
				H69.82l-0.453,73.866c-0.059,10.792-5.981,42.271-11.694,62.361c-2.987,10.883-5.543,17.207-7.868,19.378
				C48.397,181.501,46.393,182.257,44.279,182.257z M44.157,178.763h0.122c1.234,0,2.358-0.396,3.111-1.11h0.027
				c0.812-0.766,3.104-4.032,6.882-17.755v-0.036c2.738-9.6,5.64-22.251,7.965-34.671c2.241-11.962,3.575-21.946,3.598-26.726
				l0.454-70.387H22.023l0.416,70.387c0.035,4.78,1.395,14.764,3.631,26.726c2.293,12.419,5.209,25.071,7.973,34.671v0.036
				c3.74,13.723,6.04,16.99,6.866,17.755h0.033c0.71,0.715,1.889,1.11,3.106,1.11H44.157z"/>
		</g>
	</g>
	<g>
		<g>
			<path fill="#11121B" d="M85.795,14.794c-0.929-2.197-2.863-3.865-5.795-3.846l-6.08,0.052c-0.862,0-1.603,1.075-1.572,2.392
				c0,1.329,0.735,2.301,1.601,2.292l6.09-0.06c1.626,0,2.557,0.689,2.922,1.584c0.076,0.25,0.132,0.519,0.132,0.796
				c0,0.176-0.056,0.435-0.132,0.7c-0.34,0.894-1.296,1.604-2.906,1.604l-7.878,0.089c-0.853,0-1.608,1.071-1.608,2.292
				c0.038,1.33,0.756,2.393,1.628,2.365l7.894-0.032c2.898-0.04,4.826-1.75,5.726-3.972c0.381-0.956,0.619-2.011,0.608-3.081
				C86.423,16.829,86.172,15.763,85.795,14.794z"/>
		</g>
	</g>
	<g>
		<g>
			<path fill="none" stroke="#000000" stroke-width="0.1417" d="M28.786,1.639"/>
		</g>
	</g>
	<g>
		<g>
			<path fill="none" stroke="#000000" stroke-width="0.1417" d="M28.786-3.149"/>
		</g>
	</g>
	<g>
		<g>
			<rect x="18.013" y="18.857" fill="#FFFFFF" width="52.022" height="7.581"/>
		</g>
		<g>
			<path fill="#010101" d="M71.778,28.203H16.24v-11.1h55.538V28.203z M19.743,24.693h48.562v-4.083H19.743V24.693z"/>
		</g>
	</g>
	<g>
		<g>
			<rect x="13.579" y="8.867" fill="#FFFFFF" width="59.252" height="8.343"/>
		</g>
		<g>
			<path fill="#010101" d="M72.831,18.955H13.579c-0.946,0-1.726-0.772-1.726-1.745V8.867c0-0.956,0.779-1.752,1.726-1.752h59.252
				c0.938,0,1.731,0.796,1.731,1.752v8.343C74.562,18.183,73.768,18.955,72.831,18.955z M15.358,15.456h55.705v-4.834H15.358V15.456
				z"/>
		</g>
	</g>
	<g>
		<g>
			<rect x="20.695" y="38.615" fill="#010101" width="13.682" height="0.345"/>
		</g>
	</g>
	<g>
		<g>
			<rect x="20.695" y="57.578" fill="#010101" width="13.682" height="0.346"/>
		</g>
	</g>
	<g>
		<g>
			<rect x="20.695" y="76.515" fill="#010101" width="13.682" height="0.355"/>
		</g>
	</g>
	<g>
		<g>
			<rect x="20.695" y="95.458" fill="#010101" width="13.682" height="0.364"/>
		</g>
	</g>
	<path fill="#FFFFFF" stroke="#000000" stroke-width="5.6693" stroke-miterlimit="10" d="M78.204,95.793
		c0,18.806-15.247,34.04-34.052,34.04c-18.797,0-34.042-15.234-34.042-34.04c0-18.793,15.245-34.046,34.042-34.046
		C62.957,61.747,78.204,77,78.204,95.793z"/>
</g>
</svg>
