<?xml version="1.0" encoding="utf-8"?>
<!-- Generator: Adobe Illustrator 16.0.0, SVG Export Plug-In . SVG Version: 6.00 Build 0)  -->
<!DOCTYPE svg PUBLIC "-//W3C//DTD SVG 1.1//EN" "http://www.w3.org/Graphics/SVG/1.1/DTD/svg11.dtd">
<svg version="1.1" id="Layer_1" xmlns="http://www.w3.org/2000/svg" xmlns:xlink="http://www.w3.org/1999/xlink" x="0px" y="0px"
	 width="90.667px" height="188.499px" viewBox="0 0 90.667 188.499" enable-background="new 0 0 90.667 188.499"
	 xml:space="preserve">
<path fill-rule="evenodd" clip-rule="evenodd" fill="#FFFFFF" stroke="#000000" stroke-miterlimit="10" d="M-75.632,140.092
	c-0.062-6.234-0.004-12.468-0.046-18.702c-0.02-3.046,0.738-3.722-4.39-3.722c-5.178,0-4.371,0.675-4.391,3.722
	c-0.031,4.53,0.035,10.763-0.044,18.702c-0.029,2.908,0.017,5.861,0.194,8.765c0.092,1.499,2.24,8.661,4.241,8.575
	c1.634,0.068,3.918-6.205,4.12-7.463C-75.439,146.797-75.601,143.299-75.632,140.092C-75.647,138.555-75.617,141.6-75.632,140.092z"
	/>
<g>
	<g>
		<g>
			<path fill="#FFFFFF" d="M68.061,26.339H44.157H20.249l0.461,72.125c0.056,10.23,5.749,41.296,11.642,61.884
				c2.551,9.342,5.162,16.528,7.374,18.567c1.179,1.096,2.812,1.617,4.432,1.577c1.62,0.04,3.291-0.481,4.438-1.577
				c2.227-2.039,4.808-9.225,7.379-18.567c5.878-20.588,11.591-51.654,11.646-61.884L68.061,26.339z"/>
		</g>
		<g>
			<path fill="#010101" d="M44.279,182.257L44.279,182.257c-0.046,0-0.073,0-0.122,0c-0.03,0-0.078,0-0.108,0
				c-2.11,0-4.142-0.756-5.511-2.054c-2.325-2.181-4.889-8.495-7.881-19.378c-5.71-20.09-11.635-51.569-11.695-62.361l-0.475-73.866
				H69.82l-0.453,73.866c-0.059,10.792-5.981,42.271-11.694,62.361c-2.987,10.883-5.543,17.207-7.868,19.378
				C48.397,181.501,46.393,182.257,44.279,182.257z M44.157,178.763h0.122c1.234,0,2.358-0.396,3.111-1.11h0.027
				c0.812-0.766,3.104-4.032,6.882-17.755v-0.036c2.738-9.6,5.64-22.251,7.965-34.671c2.241-11.962,3.575-21.946,3.598-26.726
				l0.454-70.387H22.023l0.416,70.387c0.035,4.78,1.395,14.764,3.631,26.726c2.293,12.419,5.209,25.071,7.973,34.671v0.036
				c3.74,13.723,6.04,16.99,6.866,17.755h0.033c0.71,0.715,1.889,1.11,3.106,1.11H44.157z"/>
		</g>
	</g>
	<g>
		<g>
			<path fill="#11121B" d="M85.795,14.794c-0.929-2.197-2.863-3.865-5.795-3.846l-6.08,0.052c-0.862,0-1.603,1.075-1.572,2.392
				c0,1.329,0.735,2.301,1.601,2.292l6.09-0.06c1.626,0,2.557,0.689,2.922,1.584c0.076,0.25,0.132,0.519,0.132,0.796
				c0,0.176-0.056,0.435-0.132,0.7c-0.34,0.894-1.296,1.604-2.906,1.604l-7.878,0.089c-0.853,0-1.608,1.071-1.608,2.292
				c0.038,1.33,0.756,2.393,1.628,2.365l7.894-0.032c2.898-0.04,4.826-1.75,5.726-3.972c0.381-0.956,0.619-2.011,0.608-3.081
				C86.423,16.829,86.172,15.763,85.795,14.794z"/>
		</g>
	</g>
	<g>
		<g>
			<path fill="none" stroke="#000000" stroke-width="0.1417" d="M28.786,1.639"/>
		</g>
	</g>
	<g>
		<g>
			<path fill="none" stroke="#000000" stroke-width="0.1417" d="M28.786-3.149"/>
		</g>
	</g>
	<g>
		<g>
			<rect x="18.013" y="18.857" fill="#FFFFFF" width="52.022" height="7.581"/>
		</g>
		<g>
			<path fill="#010101" d="M71.778,28.203H16.24v-11.1h55.538V28.203z M19.743,24.693h48.562v-4.083H19.743V24.693z"/>
		</g>
	</g>
	<g>
		<g>
			<rect x="13.579" y="8.867" fill="#FFFFFF" width="59.252" height="8.343"/>
		</g>
		<g>
			<path fill="#010101" d="M72.831,18.955H13.579c-0.946,0-1.726-0.772-1.726-1.745V8.867c0-0.956,0.779-1.752,1.726-1.752h59.252
				c0.938,0,1.731,0.796,1.731,1.752v8.343C74.562,18.183,73.768,18.955,72.831,18.955z M15.358,15.456h55.705v-4.834H15.358V15.456
				z"/>
		</g>
	</g>
	<g>
		<g>
			<rect x="20.695" y="38.615" fill="#010101" width="13.682" height="0.345"/>
		</g>
	</g>
	<g>
		<g>
			<rect x="20.695" y="57.578" fill="#010101" width="13.682" height="0.346"/>
		</g>
	</g>
	<g>
		<g>
			<rect x="20.695" y="76.515" fill="#010101" width="13.682" height="0.355"/>
		</g>
	</g>
	<g>
		<g>
			<rect x="20.695" y="95.458" fill="#010101" width="13.682" height="0.364"/>
		</g>
	</g>
</g>
<path fill-rule="evenodd" clip-rule="evenodd" fill="none" stroke="#000000" stroke-miterlimit="10" d="M-75.632,140.092
	c-0.062-6.234-0.004-12.468-0.046-18.702c-0.02-3.046,0.738-3.722-4.39-3.722c-5.178,0-4.371,0.675-4.391,3.722
	c-0.031,4.53,0.035,10.763-0.044,18.702c-0.029,2.908,0.017,5.861,0.194,8.765c0.092,1.499,2.24,8.661,4.241,8.575
	c1.634,0.068,3.918-6.205,4.12-7.463C-75.439,146.797-75.601,143.299-75.632,140.092C-75.647,138.555-75.617,141.6-75.632,140.092z"
	/>
<g>
	<g>
		<path fill="#FFFFFF" d="M-75.386,117.748c0-0.571-0.012-1.14,0.004-1.71c0.012-0.394-0.137-0.697-0.471-0.87
			c-0.352-0.181-0.721-0.352-1.102-0.443c-1.88-0.451-3.782-0.46-5.681-0.164c-0.611,0.096-1.212,0.315-1.792,0.542
			c-0.396,0.154-0.586,0.494-0.578,0.957c0.021,1.13,0.016,2.261,0.002,3.39c-0.004,0.368,0.118,0.677,0.434,0.825
			c0.473,0.223,0.965,0.443,1.473,0.55c1.728,0.362,3.476,0.364,5.215,0.107c0.66-0.098,1.308-0.336,1.938-0.571
			c0.391-0.146,0.579-0.488,0.563-0.934C-75.4,118.868-75.386,118.308-75.386,117.748z"/>
		<path fill="#FFFFFF" d="M-75.386,117.748c0,0.56-0.014,1.121,0.004,1.68c0.016,0.446-0.172,0.788-0.563,0.934
			c-0.63,0.235-1.277,0.473-1.938,0.571c-1.739,0.257-3.487,0.255-5.215-0.107c-0.508-0.107-1-0.328-1.473-0.55
			c-0.316-0.148-0.438-0.457-0.434-0.825c0.014-1.129,0.019-2.26-0.002-3.39c-0.008-0.463,0.182-0.803,0.578-0.957
			c0.581-0.227,1.181-0.445,1.792-0.542c1.899-0.296,3.801-0.287,5.681,0.164c0.381,0.091,0.75,0.262,1.102,0.443
			c0.334,0.173,0.483,0.476,0.471,0.87C-75.398,116.607-75.386,117.177-75.386,117.748z M-76.178,116.884
			c-2.712,0.726-5.33,0.729-7.982,0.009c0,0.612,0,1.219,0,1.825c0,0.979-0.002,0.987,0.955,1.215
			c1.604,0.381,3.233,0.407,4.856,0.197c0.683-0.089,1.345-0.335,2.013-0.526c0.068-0.02,0.15-0.148,0.151-0.228
			C-76.174,118.551-76.178,117.724-76.178,116.884z M-84.052,115.842c1.249,0.979,6.685,0.934,7.816-0.028
			C-78.898,115.015-81.475,115.004-84.052,115.842z"/>
		<path fill="#FFFFFF" d="M-76.178,116.884c0,0.84,0.004,1.667-0.006,2.492c-0.001,0.08-0.083,0.208-0.151,0.228
			c-0.668,0.191-1.331,0.437-2.013,0.526c-1.624,0.21-3.252,0.184-4.856-0.197c-0.957-0.228-0.955-0.236-0.955-1.215
			c0-0.606,0-1.213,0-1.825C-81.508,117.612-78.891,117.61-76.178,116.884z"/>
		<path fill="#FFFFFF" d="M-84.052,115.842c2.578-0.837,5.154-0.827,7.816-0.028C-77.367,116.775-82.804,116.821-84.052,115.842z"/>
	</g>
	<g>
		<path fill="none" d="M-74.476,117.404c0-0.667-0.015-1.333,0.006-1.998c0.012-0.459-0.162-0.814-0.552-1.016
			c-0.411-0.211-0.842-0.411-1.287-0.517c-2.196-0.527-4.418-0.538-6.637-0.191c-0.714,0.111-1.416,0.368-2.094,0.631
			c-0.463,0.181-0.684,0.578-0.675,1.119c0.025,1.319,0.018,2.641,0.002,3.961c-0.003,0.43,0.137,0.79,0.508,0.964
			c0.553,0.26,1.127,0.518,1.719,0.642c2.019,0.424,4.062,0.425,6.093,0.126c0.772-0.114,1.527-0.393,2.263-0.667
			c0.456-0.17,0.676-0.57,0.659-1.09C-74.493,118.712-74.476,118.057-74.476,117.404z"/>
		<path fill-rule="evenodd" clip-rule="evenodd" d="M-74.476,117.404c0,0.653-0.017,1.309,0.006,1.962
			c0.017,0.521-0.204,0.92-0.659,1.09c-0.736,0.274-1.491,0.553-2.263,0.667c-2.031,0.299-4.074,0.298-6.093-0.126
			c-0.592-0.124-1.166-0.382-1.719-0.642c-0.371-0.174-0.511-0.534-0.508-0.964c0.016-1.32,0.023-2.642-0.002-3.961
			c-0.009-0.541,0.212-0.938,0.675-1.119c0.679-0.264,1.38-0.52,2.094-0.631c2.218-0.347,4.441-0.336,6.637,0.191
			c0.445,0.106,0.876,0.306,1.287,0.517c0.39,0.201,0.564,0.557,0.552,1.016C-74.491,116.071-74.476,116.737-74.476,117.404z
			 M-75.402,116.395c-3.169,0.848-6.226,0.851-9.325,0.01c0,0.715,0,1.423,0,2.132c0,1.142-0.001,1.153,1.117,1.419
			c1.874,0.445,3.775,0.476,5.671,0.23c0.797-0.103,1.571-0.391,2.352-0.614c0.081-0.023,0.175-0.173,0.176-0.266
			C-75.398,118.341-75.402,117.376-75.402,116.395z M-84.602,115.177c1.459,1.145,7.811,1.091,9.131-0.033
			C-78.58,114.212-81.591,114.199-84.602,115.177z"/>
		<path fill-rule="evenodd" clip-rule="evenodd" fill="none" d="M-75.402,116.395c0,0.981,0.004,1.946-0.009,2.912
			c-0.001,0.093-0.095,0.242-0.176,0.266c-0.78,0.223-1.555,0.511-2.352,0.614c-1.896,0.246-3.798,0.215-5.671-0.23
			c-1.119-0.266-1.117-0.277-1.117-1.419c0-0.709,0-1.417,0-2.132C-81.627,117.246-78.571,117.243-75.402,116.395z"/>
		<path fill-rule="evenodd" clip-rule="evenodd" fill="none" d="M-84.602,115.177c3.011-0.978,6.022-0.965,9.131-0.033
			C-76.791,116.268-83.142,116.321-84.602,115.177z"/>
	</g>
</g>
<line fill="#FFFFFF" stroke="#000000" stroke-width="0.2835" stroke-miterlimit="10" x1="-75.905" y1="116.48" x2="-75.905" y2="120.554"/>
<line fill="#FFFFFF" stroke="#000000" stroke-width="0.2835" stroke-miterlimit="10" x1="-76.655" y1="116.48" x2="-76.655" y2="120.554"/>
<line fill="#FFFFFF" stroke="#000000" stroke-width="0.2835" stroke-miterlimit="10" x1="-77.406" y1="116.48" x2="-77.406" y2="120.554"/>
<line fill="#FFFFFF" stroke="#000000" stroke-width="0.2835" stroke-miterlimit="10" x1="-82.659" y1="116.48" x2="-82.659" y2="120.556"/>
<line fill="#FFFFFF" stroke="#000000" stroke-width="0.2835" stroke-miterlimit="10" x1="-83.41" y1="116.48" x2="-83.41" y2="120.556"/>
<line fill="#FFFFFF" stroke="#000000" stroke-width="0.2835" stroke-miterlimit="10" x1="-84.16" y1="116.48" x2="-84.16" y2="120.555"/>
<path fill="none" stroke="#000000" stroke-width="0.1417" stroke-miterlimit="10" d="M-84.612,122.906c0,0,1.238,0.688,3.195,0.688"
	/>
<path fill="none" stroke="#000000" stroke-width="0.1417" stroke-miterlimit="10" d="M-84.612,127.44c0,0,1.238,0.688,3.195,0.688"
	/>
<path fill="none" stroke="#000000" stroke-width="0.1417" stroke-miterlimit="10" d="M-84.612,141.043c0,0,1.238,0.688,3.195,0.688"
	/>
<path fill="none" stroke="#000000" stroke-width="0.1417" stroke-miterlimit="10" d="M-84.612,145.578c0,0,1.238,0.688,3.195,0.688"
	/>
<path fill="none" stroke="#000000" stroke-width="0.1417" stroke-miterlimit="10" d="M-84.612,136.51c0,0,1.238,0.688,3.195,0.688"
	/>
<path fill="none" stroke="#000000" stroke-width="0.1417" stroke-miterlimit="10" d="M-84.612,131.977c0,0,1.238,0.688,3.195,0.688"
	/>
</svg>
