<?xml version="1.0" encoding="utf-8"?>
<!-- Generator: Adobe Illustrator 16.0.0, SVG Export Plug-In . SVG Version: 6.00 Build 0)  -->
<!DOCTYPE svg PUBLIC "-//W3C//DTD SVG 1.1//EN" "http://www.w3.org/Graphics/SVG/1.1/DTD/svg11.dtd">
<svg version="1.1" id="Layer_1" xmlns="http://www.w3.org/2000/svg" xmlns:xlink="http://www.w3.org/1999/xlink" x="0px" y="0px"
	 width="78.408px" height="99px" viewBox="0 0 78.408 99" enable-background="new 0 0 78.408 99" xml:space="preserve">
<path fill="#FFFFFF" d="M65.07,22.945l-0.721,0.198l-0.004-0.359c-18.518,0.255-46.066,0.521-50.109,0.272v-0.013l-0.563-0.077
	c-0.073-0.009-0.25-0.002-0.418,0.119l-0.162-0.046l-0.094,0.41c-0.014,0.033-0.033,0.05-0.043,0.089
	c-0.015,0.06-0.04,0.148-0.069,0.263c-0.053,0.208-0.128,0.519-0.225,0.924c-0.18,0.75-0.438,1.854-0.766,3.278
	c-0.553,2.396-1.318,5.737-2.271,9.934c-1.512,6.646-3.025,13.364-3.242,14.326l-0.051,0.222v0.005L6.23,52.945l0.121,0.065
	l1.208,31.294l5.771,2.379l-0.475,2.033l0.725,4.3l0.478,0.841l0.252,0.067c2.604,0.705,10.198,2.121,20.325,2.424
	c1.579,0.106,3.046,0.159,4.366,0.164c0.114,0,0.226,0,0.338,0c15.165,0,24.423-2.462,24.516-2.487l0.306-0.081l0.432-1.082
	l0.718-4.245l-0.476-2.032l5.777-2.379l0.933-32.101l0.004-0.098L65.07,22.945z"/>
<path fill="none" d="M46.388,34.188c0.347,0,0.684-0.048,1.007-0.126l2.473-3.598c-0.06-0.308-0.162-0.598-0.315-0.84
	c-0.484-0.771-1.385-1.271-2.289-1.271c-0.518,0-1.02,0.16-1.488,0.47c-0.896,0.598-1.643,1.772-1.859,2.926
	c-0.115,0.62-0.059,1.151,0.16,1.501C44.435,33.821,45.343,34.188,46.388,34.188z"/>
<path fill="none" d="M49.079,9c-0.062,0.078-0.182,0.1-0.27,0.041l-0.137-0.088l-0.355,0.449c-0.104,0.133-0.1,0.25-0.045,0.33
	c0.021,0.021,0.041,0.043,0.066,0.059c0.014,0.01,0.041,0.02,0.07,0.031c0.104,0.021,0.229-0.012,0.332-0.145l0.508-0.648
	c0.01-0.012,0.032-0.01,0.046-0.017l-0.15-0.097L49.079,9z"/>
<path fill="none" d="M18.746,51.936c5.329,3.384,12.553,5.252,20.351,5.272c0.122,0,0.241-0.002,0.362-0.003
	c7.646-0.039,14.935-2.022,20.542-5.6c5.287-3.382,8.354-7.753,8.408-11.999c0.033-2.45-0.949-4.842-2.922-7.112
	c-2.379-2.735-6.021-5.065-10.533-6.74c-4.721-1.748-10.158-2.673-15.725-2.673c-7.978,0-15.263,1.69-20.511,4.758
	c-2.566,1.499-4.561,3.271-5.932,5.262c-1.385,2.016-2.09,4.208-2.09,6.514C10.697,44.265,13.556,48.64,18.746,51.936z
	 M15.369,41.781c0.3-0.382,0.649-0.8,1.016-1.225c-0.047-0.403-0.078-0.809-0.078-1.22c0-8.45,10.119-15.3,22.599-15.3
	c12.482,0,22.602,6.851,22.602,15.3c0,0.248-0.011,0.494-0.027,0.739c0.302,0.354,0.592,0.704,0.844,1.026
	c0.754,0.938,1.141,1.56,1.188,1.901c0.029,0.206-0.033,0.434-0.166,0.622c-0.002,0.004-0.002,0.006-0.006,0.011
	c-0.129,0.188-0.314,0.319-0.51,0.358c-0.33,0.071-1.029-0.099-2.141-0.511c-0.008-0.003-0.018-0.007-0.025-0.01
	c-2.667,6.438-11.395,11.16-21.758,11.16c-10.067,0-18.595-4.459-21.517-10.616c-0.128,0.049-0.263,0.102-0.385,0.146
	c-1.111,0.414-1.811,0.584-2.139,0.513c-0.195-0.042-0.383-0.17-0.512-0.358c-0.002-0.004-0.004-0.007-0.006-0.011
	c-0.133-0.189-0.193-0.417-0.166-0.625C14.228,43.343,14.617,42.721,15.369,41.781z"/>
<path fill="none" d="M29.914,9.68c0.105,0.131,0.23,0.164,0.332,0.143c0.027-0.01,0.059-0.021,0.074-0.031
	c0.025-0.016,0.045-0.035,0.064-0.057c0.055-0.082,0.059-0.199-0.045-0.332l-0.357-0.449l-0.137,0.088
	C29.761,9.1,29.64,9.081,29.578,9l-0.065-0.084l-0.153,0.099c0.013,0.007,0.036,0.005,0.044,0.017L29.914,9.68z"/>
<path fill="none" d="M60.644,52.898c-1.943,1.241-4.092,2.277-6.368,3.135c3.68-0.577,6.723-1.288,9.058-1.941
	c4.213-1.178,6.878-2.357,7.904-2.851l-1.925-8.802C68.266,46.268,65.231,49.968,60.644,52.898z"/>
<path fill="none" d="M66.419,31.451c0.239,0.276,0.46,0.555,0.674,0.837l-2.116-9.676c-1.452,0.019-7.466,0.101-14.873,0.184
	c1.821,0.414,3.586,0.926,5.259,1.546C60.071,26.087,63.897,28.545,66.419,31.451z"/>
<path fill="none" d="M38.552,32.18c0.578,0,1.25-0.432,1.799-1.152c0.576-0.757,0.908-1.683,0.908-2.545
	c0-1.761-1.428-2.987-2.707-2.987c-1.3,0-2.705,1.074-2.705,2.808C35.847,30.078,37.314,32.18,38.552,32.18z"/>
<path fill="none" d="M25.866,39.381c0.118-0.04,0.235-0.083,0.349-0.133c0.044-0.018,0.087-0.037,0.13-0.057
	c0.142-0.068,0.279-0.141,0.409-0.221c0.026-0.016,0.052-0.032,0.078-0.048c0.116-0.075,0.222-0.157,0.325-0.24
	c0.053-0.043,0.105-0.087,0.154-0.134c0.062-0.057,0.117-0.116,0.171-0.176c0.075-0.083,0.145-0.169,0.208-0.261
	c0.047-0.069,0.096-0.137,0.133-0.208l-2.141,1.533C25.744,39.419,25.805,39.401,25.866,39.381z"/>
<path fill="none" d="M39.056,41.878c-1.24,0-2.707,1.593-2.707,2.935c0,1.023,1.036,2.124,2.707,2.124
	c1.279,0,2.705-0.925,2.705-2.256C41.761,43.263,40.212,41.878,39.056,41.878z"/>
<path fill="none" d="M29.567,33.681c0.459,0.174,0.964,0.275,1.487,0.275c1.043,0,1.949-0.368,2.311-0.939
	c0.219-0.347,0.277-0.881,0.16-1.499c-0.215-1.154-0.965-2.33-1.859-2.923c-0.469-0.315-0.969-0.472-1.49-0.472
	c-0.902,0-1.803,0.498-2.287,1.271c-0.23,0.363-0.351,0.829-0.365,1.313c0,0.001,0.001,0.001,0.002,0.002L29.567,33.681z"/>
<path fill="none" d="M24.546,56.303c-2.339-0.826-4.513-1.844-6.439-3.068c-4.792-3.045-7.742-7.007-8.512-11.338l-2.22,9.85
	c0.971,0.468,3.411,1.545,7.329,2.61C17.146,55.021,20.438,55.748,24.546,56.303z"/>
<path fill="none" d="M23.715,34.079c-0.068,0.013-0.131,0.036-0.197,0.054c-0.103,0.028-0.207,0.054-0.303,0.095
	c-0.039,0.016-0.073,0.038-0.11,0.056c-0.115,0.054-0.228,0.11-0.332,0.18c-0.012,0.008-0.021,0.018-0.033,0.025
	c-0.386,0.267-0.693,0.626-0.9,1.021c-0.002,0.004-0.003,0.01-0.006,0.014c0,0,0,0.001,0,0.001l1.978-1.455
	C23.78,34.074,23.746,34.073,23.715,34.079z"/>
<path fill="none" d="M45.429,44.984c0.217,0.11,0.443,0.189,0.673,0.25c0.066,0.017,0.131,0.024,0.197,0.037
	c0.167,0.033,0.337,0.054,0.51,0.06c0.074,0.002,0.149,0.004,0.223,0.002c0.186-0.006,0.361-0.028,0.529-0.061
	c0.125-0.025,0.243-0.057,0.36-0.093c0.107-0.035,0.215-0.068,0.312-0.111c0.093-0.04,0.179-0.084,0.264-0.129
	c0.085-0.048,0.167-0.097,0.241-0.148c0.059-0.04,0.119-0.078,0.171-0.119c0.123-0.1,0.233-0.2,0.314-0.298
	c0.303-0.368,0.428-0.866,0.34-1.362c-0.117-0.66-0.584-1.229-1.312-1.6c-0.158-0.08-0.325-0.148-0.498-0.208
	c-0.076-0.026-0.159-0.044-0.239-0.067c-0.102-0.028-0.202-0.061-0.307-0.083c-0.073-0.016-0.15-0.023-0.225-0.036
	c-0.307-0.051-0.616-0.082-0.921-0.082c-1.025,0-1.965,0.275-2.33,0.717c-0.242,0.291-0.234,0.689-0.184,0.971
	C43.708,43.531,44.481,44.501,45.429,44.984z"/>
<path fill="none" d="M63.919,80.314l1.524,5.895l4.979-2.092l0.896-31.305c-1.124,0.517-3.226,1.392-6.282,2.317L63.919,80.314z"/>
<path fill="none" d="M13.886,55.657c-3.251-0.914-5.428-1.806-6.583-2.334L8.47,84.221l4.985,2.092L14.98,80.4L13.886,55.657z"/>
<path fill="none" d="M45.537,25.053c-2.016-0.418-4.171-0.656-6.423-0.656c-5.17,0-9.862,1.206-13.375,3.164
	c3.677-2.019,8.41-3.136,13.443-3.136C41.379,24.425,43.514,24.647,45.537,25.053z"/>
<path fill="none" d="M50.985,38.42c0.228,0.235,0.519,0.455,0.854,0.643c0.064,0.036,0.127,0.072,0.194,0.105
	c0.075,0.037,0.154,0.07,0.233,0.104c0.103,0.042,0.206,0.083,0.312,0.118c0.061,0.021,0.121,0.04,0.183,0.059
	c0.105,0.03,0.213,0.051,0.32,0.073l-2.575-1.844C50.599,37.938,50.762,38.188,50.985,38.42z"/>
<path fill="none" d="M18.117,26.518c2.601-1.52,5.684-2.704,9.081-3.535c-2.061,0.008-3.901,0.01-5.508,0.009
	c-2.572-0.002-4.576-0.02-5.955-0.049c-0.748-0.015-1.328-0.035-1.729-0.057c-0.044-0.001-0.084-0.005-0.125-0.007l-2.084,9.249
	C13.283,29.988,15.405,28.101,18.117,26.518z"/>
<path fill="none" d="M14.07,90.591l0.531,3.209l0.072,0.13c2.84,0.739,10.346,2.113,20.271,2.413l0.021,0.003
	c1.596,0.105,3.074,0.164,4.404,0.166c0.115,0,0.229,0,0.344,0c13.799,0,22.723-2.035,24.459-2.47l0.115-0.292l0.525-3.162
	c-2.548,0.482-13.09,2.329-25.443,2.329C27.413,92.917,17.061,91.152,14.07,90.591z"/>
<path fill="none" d="M31.18,40.962c-0.008,0.001-0.017,0-0.025,0.001c-0.109,0.011-0.217,0.032-0.326,0.05
	c-0.085,0.013-0.172,0.023-0.254,0.041c-0.096,0.021-0.189,0.051-0.283,0.077c-0.087,0.025-0.178,0.044-0.262,0.073
	c-0.172,0.059-0.339,0.127-0.497,0.208c-0.729,0.37-1.195,0.939-1.312,1.6c-0.088,0.496,0.035,0.994,0.34,1.362
	c0.081,0.098,0.192,0.199,0.314,0.298c0.052,0.042,0.112,0.08,0.171,0.119c0.075,0.052,0.156,0.101,0.241,0.148
	c0.085,0.045,0.171,0.09,0.264,0.129c0.098,0.043,0.205,0.077,0.313,0.111c0.117,0.037,0.235,0.068,0.36,0.093
	c0.168,0.033,0.344,0.055,0.53,0.061c0.073,0.002,0.148,0,0.222-0.002c0.173-0.006,0.343-0.027,0.511-0.06
	c0.065-0.013,0.129-0.02,0.194-0.037c0.231-0.06,0.458-0.139,0.675-0.25c0.945-0.483,1.719-1.453,1.881-2.361
	c0.051-0.281,0.059-0.68-0.184-0.971c-0.365-0.442-1.305-0.717-2.332-0.717C31.542,40.935,31.361,40.944,31.18,40.962z"/>
<path fill="none" d="M48.747,86.702l-0.191-3.828l-0.115-0.002l-0.014-0.15c-0.785-0.002-3.303-0.006-6.496-0.006
	c-0.639,0-1.305,0.002-1.994,0.002c-4.537,0.002-7.591,0.04-8.47,0.053l-0.219,4.386l-0.217,2.704c1.254,0.071,6.245,0.35,8.98,0.35
	h0.074c2.719-0.004,7.6-0.268,8.82-0.336l-0.008-0.114l0.094-0.004L48.747,86.702z"/>
<path fill="none" d="M56.357,35.158c-0.034-0.048-0.074-0.092-0.112-0.138c-0.059-0.071-0.117-0.142-0.183-0.208
	c-0.044-0.044-0.092-0.085-0.139-0.125c-0.068-0.06-0.139-0.119-0.214-0.173c-0.053-0.038-0.109-0.071-0.165-0.105
	c-0.077-0.047-0.157-0.092-0.24-0.131c-0.062-0.029-0.128-0.055-0.194-0.08c-0.07-0.026-0.145-0.048-0.219-0.068l1.524,1.122
	C56.396,35.221,56.379,35.188,56.357,35.158z"/>
<path fill="none" stroke="#010101" stroke-miterlimit="10" d="M57.08,82.4c-2.029,0-3.729,1.047-4.285,2.47
	c-0.123,0.314-0.209,0.642-0.209,0.986c0,1.906,2.016,3.458,4.494,3.458c1.162,0,2.215-0.352,3.014-0.911
	c0.902-0.632,1.48-1.535,1.48-2.547C61.574,83.951,59.557,82.4,57.08,82.4z M57.08,88.763c-2.17,0-3.932-1.302-3.932-2.906
	c0-1.602,1.762-2.906,3.932-2.906c2.166,0,3.932,1.305,3.932,2.906C61.012,87.461,59.246,88.763,57.08,88.763z"/>
<path d="M66.038,21.287l-53.177,0.097L5.963,52.639l1.235,32.633l5.904,2.48l-0.486,2.119l0.742,4.483l0.488,0.877l0.258,0.071
	c2.664,0.734,10.434,2.211,20.795,2.527c1.615,0.11,3.117,0.166,4.466,0.17c0.117,0,0.23,0,0.346,0
	c15.516,0,24.986-2.567,25.082-2.594l0.312-0.084l0.441-1.128l0.734-4.427l-0.486-2.119l5.91-2.481l0.955-33.474l0.004-0.102
	L66.038,21.287z M71.237,51.241c-1.026,0.493-3.691,1.673-7.904,2.851c-2.335,0.653-5.378,1.364-9.058,1.941
	c2.276-0.857,4.425-1.894,6.368-3.135c4.588-2.931,7.622-6.631,8.669-10.459L71.237,51.241z M64.977,22.611l2.116,9.676
	c-0.214-0.282-0.435-0.561-0.674-0.837c-2.521-2.905-6.348-5.364-11.057-7.109c-1.673-0.621-3.438-1.132-5.259-1.546
	C57.511,22.712,63.524,22.63,64.977,22.611z M13.881,22.879c0.041,0.002,0.081,0.005,0.125,0.007c0.4,0.022,0.98,0.042,1.729,0.057
	c1.379,0.029,3.383,0.047,5.955,0.049c1.607,0.001,3.448-0.001,5.508-0.009c-3.396,0.831-6.48,2.015-9.081,3.535
	c-2.711,1.583-4.833,3.47-6.32,5.61L13.881,22.879z M12.787,33.101c1.371-1.991,3.365-3.763,5.932-5.262
	c5.248-3.068,12.533-4.758,20.511-4.758c5.566,0,11.004,0.926,15.725,2.673c4.512,1.674,8.154,4.004,10.533,6.74
	c1.973,2.271,2.955,4.663,2.922,7.112c-0.055,4.246-3.121,8.617-8.408,11.999c-5.607,3.577-12.896,5.561-20.542,5.6
	c-0.121,0.001-0.24,0.003-0.362,0.003c-7.798-0.021-15.022-1.889-20.351-5.272c-5.189-3.295-8.049-7.671-8.049-12.32
	C10.697,37.309,11.402,35.117,12.787,33.101z M9.595,41.896c0.77,4.332,3.719,8.293,8.512,11.338c1.926,1.225,4.1,2.242,6.439,3.068
	c-4.108-0.555-7.4-1.282-9.842-1.946c-3.918-1.065-6.358-2.143-7.329-2.61L9.595,41.896z M13.455,86.312L8.47,84.221L7.304,53.323
	c1.155,0.528,3.331,1.42,6.583,2.334L14.98,80.4L13.455,86.312z M64.288,93.75l-0.115,0.292c-1.736,0.435-10.66,2.47-24.459,2.47
	c-0.115,0-0.229,0-0.344,0c-1.33-0.002-2.808-0.061-4.404-0.166l-0.021-0.003c-9.926-0.3-17.432-1.674-20.271-2.413l-0.072-0.13
	l-0.531-3.209c2.99,0.562,13.343,2.326,25.3,2.326c12.354,0,22.896-1.847,25.443-2.329L64.288,93.75z M39.37,91.856
	c-12.144,0-22.613-1.831-25.314-2.348l0.476-2.077l1.769-6.854l-0.022-0.502c2.752,0.248,13.237,1.139,21.781,1.139
	c0.357,0,0.707-0.002,1.055-0.004h0.018c10.107-0.093,10.107-0.093,23.486-1.24l0.184-1.483c-13.336,1.145-13.619,1.145-23.68,1.235
	h-0.02c-0.344,0.004-0.691,0.007-1.045,0.007c-8.686,0-19.406-0.928-21.846-1.15l-0.998-22.568
	c8.558,2.211,17.435,2.688,23.459,2.688c0.144,0,0.281-0.003,0.424-0.005c0.045,0.002,0.088,0.005,0.133,0.005
	c0.077,0,0.152-0.007,0.229-0.008c10.9-0.077,19.151-1.748,24.188-3.154c0.02-0.007,0.038-0.012,0.058-0.018l-1.101,24.843
	l-0.006,0.127l1.783,6.903l0.002-0.001l0.483,2.108C62.796,89.901,52.048,91.856,39.37,91.856z M70.423,84.117l-4.979,2.092
	l-1.524-5.895l1.117-25.185c3.057-0.926,5.158-1.801,6.282-2.317L70.423,84.117z"/>
<path fill="none" stroke="#000000" stroke-miterlimit="10" d="M49.166,86.26l-0.219-3.72l-0.135-0.001l-0.014-0.133h-0.256
	c-0.029,0-2.898-0.006-6.754-0.006c-0.639,0-1.305,0-1.994,0c-5.408,0.004-8.707,0.047-8.742,0.047l-0.26,0.006l-0.248,4.18
	l-0.268,2.828l0.289,0.015c0.062,0.004,6.159,0.312,9.302,0.312h0.074c3.123-0.005,9.07-0.297,9.129-0.299l0.283-0.013l-0.004-0.097
	l0.111-0.006L49.166,86.26z M48.764,88.965c-1.221,0.06-6.102,0.281-8.82,0.285h-0.074c-2.735,0-7.726-0.236-8.98-0.295l0.217-2.278
	l0.219-3.693c0.879-0.013,3.934-0.044,8.47-0.046c0.689,0,1.355-0.002,1.994-0.002c3.193,0,5.711,0.004,6.496,0.007l0.014,0.126
	l0.115,0.002l0.191,3.224l0.244,2.572l-0.094,0.006L48.764,88.965z"/>
<rect x="6.597" y="27.438" width="0.01" height="0.323"/>
<path fill="#FFFFFF" d="M13.302,15.926l0.008,0.006c0.08,0.104,0.188,0.176,0.299,0.193h0.002c0.121,0.027,0.562,0.027,2.043-0.463
	l0.006-0.002c1.041-0.33,2.369-0.828,3.637-1.357c1.227-0.512,2.213-0.982,2.648-1.258l6.38-4.047l-2.827-3.642l-0.939,0.611
	l0.79,1.016l-0.033,0.021l-0.787-1.017l-1.674,1.09l0.779,1.008l-0.031,0.019l-0.78-1.005l-1.675,1.091l0.775,0.995l-0.031,0.023
	l-0.774-0.999l-1.674,1.09l0.765,0.987l-0.031,0.02l-0.765-0.987l-0.237,0.155c-0.43,0.281-1.25,0.973-2.189,1.852
	c-0.973,0.914-1.93,1.887-2.623,2.67v0.002c-1.002,1.105-1.146,1.484-1.166,1.598c-0.016,0.102,0.02,0.221,0.098,0.322
	L13.302,15.926z"/>
<path fill="#010101" d="M12.992,16.135c0.137,0.18,0.336,0.301,0.539,0.336c0.348,0.066,1.084-0.09,2.256-0.477
	c2.182-0.697,5.4-2.037,6.377-2.66l6.386-4.048l0.13,0.167l0.3-0.194l0.38-0.245l0.153-0.099L29.578,9
	c0.062,0.08,0.184,0.1,0.268,0.041l0.137-0.088l0.424-0.272l0.193-0.124c0.09-0.055,0.107-0.164,0.045-0.242l-3.775-4.874
	c-0.064-0.078-0.184-0.098-0.27-0.042l-0.756,0.485c-0.086,0.056-0.105,0.166-0.045,0.245l0.169,0.218l-0.833,0.54l0.139,0.179
	l-6.322,4.12c-0.969,0.631-3.438,2.945-4.889,4.584c-0.793,0.879-1.201,1.457-1.248,1.775c-0.031,0.193,0.029,0.406,0.174,0.582
	C12.988,16.133,12.99,16.135,12.992,16.135z M26.664,3.791l3.555,4.583l-0.438,0.281l-3.555-4.583L26.664,3.791z M26.041,4.732
	l3.096,3.993l-0.363,0.236l-3.1-3.992L26.041,4.732z M14.363,13.997v-0.002c0.693-0.783,1.65-1.756,2.623-2.67
	c0.939-0.879,1.76-1.57,2.189-1.852l0.237-0.155l0.765,0.987l0.031-0.02l-0.765-0.987l1.674-1.09l0.774,0.999l0.031-0.023
	l-0.775-0.995l1.675-1.091l0.78,1.005l0.031-0.019l-0.779-1.008l1.674-1.09l0.787,1.017l0.033-0.021l-0.79-1.016l0.939-0.611
	l2.827,3.642l-6.38,4.047c-0.436,0.275-1.422,0.746-2.648,1.258c-1.268,0.529-2.596,1.027-3.637,1.357l-0.006,0.002
	c-1.48,0.49-1.922,0.49-2.043,0.463h-0.002c-0.111-0.018-0.219-0.09-0.299-0.193l-0.008-0.006l-0.008-0.01
	c-0.078-0.102-0.113-0.221-0.098-0.322C13.216,15.481,13.361,15.102,14.363,13.997z"/>
<path fill="#13141C" d="M30.339,9.403c0.104,0.133,0.1,0.25,0.045,0.332c-0.02,0.021-0.039,0.041-0.064,0.057
	c-0.016,0.01-0.047,0.021-0.074,0.031c-0.102,0.021-0.227-0.012-0.332-0.143l-0.51-0.648c-0.009-0.012-0.031-0.01-0.044-0.017
	l-0.38,0.245c0.003,0.015-0.006,0.035,0.003,0.047l0.514,0.645c0.186,0.238,0.465,0.297,0.719,0.242
	c0.115-0.023,0.225-0.064,0.32-0.129c0.104-0.066,0.182-0.15,0.248-0.238c0.137-0.205,0.168-0.461-0.023-0.697l-0.354-0.448
	l-0.424,0.272L30.339,9.403z"/>
<polygon fill="#FFFFFF" points="29.136,8.725 26.041,4.732 25.673,4.97 28.773,8.961 "/>
<polygon fill="#FFFFFF" points="30.218,8.374 26.664,3.791 26.226,4.071 29.781,8.655 "/>
<path fill="#FFFFFF" d="M56.71,13.045c0.432,0.275,1.426,0.746,2.646,1.256c1.271,0.531,2.6,1.029,3.643,1.359v0.002
	c1.482,0.49,1.926,0.49,2.047,0.463l0.004-0.002c0.109-0.016,0.219-0.086,0.297-0.189l0.008-0.01l0.006-0.008
	c0.078-0.102,0.115-0.221,0.1-0.322c-0.018-0.109-0.162-0.492-1.166-1.598l-0.002-0.002c-0.691-0.783-1.65-1.756-2.625-2.67
	c-0.939-0.877-1.756-1.57-2.186-1.85l-0.237-0.154l-0.767,0.984l-0.029-0.02l0.763-0.987l-1.674-1.091l-0.772,0.998l-0.031-0.021
	l0.772-0.996l-1.672-1.089l-0.782,1.007l-0.033-0.021l0.783-1.006l-1.674-1.091l-0.789,1.018L53.31,6.985l0.787-1.019l-0.938-0.612
	l-2.825,3.643L56.71,13.045z"/>
<path fill="#13141C" d="M48.12,10.065c0.098,0.064,0.209,0.102,0.32,0.129c0.258,0.055,0.535-0.004,0.721-0.242l0.51-0.645
	c0.011-0.014,0-0.034,0.004-0.05l-0.38-0.245c-0.014,0.007-0.036,0.005-0.046,0.017l-0.508,0.648
	c-0.104,0.133-0.229,0.166-0.332,0.145c-0.029-0.012-0.057-0.021-0.07-0.031c-0.025-0.016-0.045-0.037-0.066-0.059
	c-0.055-0.08-0.059-0.197,0.045-0.33l0.355-0.449l-0.424-0.273l-0.354,0.449c-0.188,0.236-0.16,0.492-0.02,0.699
	C47.938,9.915,48.021,9.999,48.12,10.065z"/>
<polygon fill="#FFFFFF" points="49.886,8.961 52.985,4.97 52.614,4.731 49.519,8.725 "/>
<polygon fill="#FFFFFF" points="52.433,4.068 51.993,3.788 48.44,8.372 48.876,8.655 "/>
<path fill="#010101" d="M48.81,9.042C48.897,9.1,49.017,9.079,49.079,9l0.065-0.085l0.15,0.097l0.38,0.245l0.305,0.196l0.13-0.167
	l6.38,4.048c0.98,0.623,4.201,1.963,6.379,2.66c1.176,0.387,1.912,0.543,2.256,0.477c0.207-0.037,0.402-0.156,0.537-0.336
	c0.006-0.002,0.006-0.002,0.01-0.008c0.137-0.176,0.201-0.391,0.174-0.582c-0.051-0.318-0.459-0.898-1.252-1.775
	c-1.447-1.639-3.916-3.953-4.885-4.584l-6.326-4.12l0.141-0.182l-0.834-0.536l0.17-0.219c0.062-0.079,0.041-0.189-0.045-0.245
	l-0.758-0.485c-0.082-0.056-0.203-0.036-0.268,0.042l-3.777,4.872c-0.062,0.08-0.041,0.191,0.047,0.244l0.191,0.124l0.424,0.273
	L48.81,9.042z M54.097,5.966L53.31,6.985l0.029,0.019l0.789-1.018l1.674,1.091l-0.783,1.006l0.033,0.021l0.782-1.007l1.672,1.089
	l-0.772,0.996l0.031,0.021l0.772-0.998l1.674,1.091l-0.763,0.987l0.029,0.02l0.767-0.984l0.237,0.154
	c0.43,0.279,1.246,0.973,2.186,1.85c0.975,0.914,1.934,1.887,2.625,2.67l0.002,0.002c1.004,1.105,1.148,1.488,1.166,1.598
	c0.016,0.102-0.021,0.221-0.1,0.322l-0.006,0.008l-0.008,0.01c-0.078,0.104-0.188,0.174-0.297,0.189l-0.004,0.002
	c-0.121,0.027-0.564,0.027-2.047-0.463v-0.002c-1.043-0.33-2.371-0.828-3.643-1.359c-1.221-0.51-2.215-0.98-2.646-1.256
	l-6.377-4.048l2.825-3.643L54.097,5.966z M52.985,4.97l-3.1,3.992l-0.367-0.236l3.096-3.994L52.985,4.97z M51.993,3.788l0.439,0.28
	l-3.557,4.586L48.44,8.372L51.993,3.788z"/>
<path d="M35.546,13.516c0.229,0.398,0.496,0.781,0.736,1.176c0.205,0.336,0.369,0.691,0.596,1.02
	c0.209,0.307,0.477,0.582,0.714,0.873c0.342,0.424,0.674,0.852,1.031,1.271c0.209,0.244,0.514,0.432,0.891,0.426
	c0.377,0.006,0.682-0.182,0.889-0.426c0.355-0.42,0.686-0.848,1.033-1.271c0.236-0.291,0.504-0.566,0.713-0.873
	c0.227-0.328,0.391-0.684,0.598-1.02c0.238-0.395,0.506-0.777,0.736-1.176c0.225-0.391,0.441-0.785,0.607-1.193
	c0.113-0.271-0.094-0.51-0.461-0.555c-0.406-0.051-0.826-0.051-1.236-0.066c-0.172-0.008-0.352,0.018-0.518-0.008
	c-0.23-0.037-0.402-0.133-0.355-0.359c0.141-0.615,0.289-5.447,0.402-6.068c0.186-0.999,0.371-2.004,0.504-3.013
	c0.059-0.463-0.277-0.885-1.236-0.832c-0.561,0.026-1.119,0.052-1.676,0.079c-0.561-0.027-1.119-0.053-1.678-0.079
	c-0.958-0.053-1.294,0.369-1.234,0.832c0.133,1.009,0.321,2.014,0.502,3.013c0.113,0.621,0.26,5.453,0.399,6.068
	c0.051,0.227-0.122,0.322-0.353,0.359c-0.166,0.025-0.346,0-0.52,0.008c-0.408,0.016-0.83,0.016-1.236,0.066
	c-0.369,0.045-0.568,0.283-0.461,0.555C35.103,12.731,35.32,13.125,35.546,13.516z"/>
<path fill="#FFFFFF" d="M46.829,36.771c0.02,0.022,0.037,0.044,0.061,0.062c0.016,0.012,0.043,0.022,0.068,0.034
	c0.098,0.022,0.215-0.016,0.314-0.155l0.484-0.691c0.009-0.013,0.03-0.011,0.044-0.02l-0.146-0.104l-0.061,0.088
	c-0.059,0.086-0.174,0.106-0.258,0.046l-0.131-0.095l-0.336,0.483C46.772,36.559,46.776,36.685,46.829,36.771z"/>
<path fill="#FFFFFF" d="M30.421,37.391c0.098,0.142,0.215,0.18,0.312,0.158c0.027-0.012,0.053-0.022,0.07-0.036
	c0.021-0.015,0.041-0.038,0.059-0.062c0.053-0.086,0.057-0.21-0.041-0.35l-0.336-0.482l-0.13,0.095
	c-0.084,0.06-0.197,0.04-0.258-0.046l-0.061-0.088l-0.143,0.104c0.013,0.008,0.033,0.005,0.042,0.019L30.421,37.391z"/>
<path fill="#010101" d="M46.388,34.399c0.285,0,0.562-0.037,0.836-0.087l-0.645,0.938c-0.059,0.084-0.037,0.202,0.043,0.261
	l0.183,0.133l0.401,0.292l0.131,0.095c0.084,0.06,0.199,0.04,0.258-0.046l0.061-0.088l0.146,0.104l0.36,0.261l0.287,0.208
	l0.123-0.179l1.68,1.204c0.062,0.347,0.259,0.684,0.537,0.993l-0.01,0.011c0.034,0.039,0.087,0.072,0.125,0.11
	c0.1,0.099,0.206,0.192,0.322,0.283c0.07,0.055,0.136,0.11,0.213,0.162c0.191,0.13,0.396,0.25,0.615,0.352
	c0.546,0.254,1.169,0.419,1.807,0.419c0.199,0,0.4-0.015,0.6-0.049c0.887-0.152,1.639-0.657,2.123-1.422
	c0.395-0.631,0.57-1.395,0.465-2.046c-0.18-1.115-1.109-2.321-2.533-2.477l-0.001,0.015c-0.003,0-0.005,0-0.008-0.001l-2.824-2.077
	l0.134-0.194L51.021,31l0.161-0.235c0.059-0.086,0.037-0.202-0.045-0.264l-0.715-0.518c-0.082-0.06-0.197-0.04-0.256,0.044
	l-0.159,0.231c-0.068-0.274-0.162-0.536-0.302-0.758c-0.521-0.826-1.479-1.36-2.443-1.36c-0.553,0-1.084,0.168-1.584,0.5
	c-0.938,0.625-1.719,1.856-1.947,3.063c-0.127,0.678-0.059,1.271,0.191,1.667C44.317,33.996,45.284,34.399,46.388,34.399z
	 M52.762,39.449c-0.062-0.019-0.122-0.038-0.183-0.059c-0.106-0.035-0.21-0.076-0.312-0.118c-0.079-0.034-0.158-0.067-0.233-0.104
	c-0.067-0.033-0.13-0.069-0.194-0.105c-0.335-0.188-0.626-0.408-0.854-0.643c-0.224-0.232-0.387-0.482-0.479-0.742l2.575,1.844
	C52.975,39.5,52.867,39.479,52.762,39.449z M55.11,34.198c0.066,0.025,0.132,0.05,0.194,0.08c0.083,0.04,0.163,0.084,0.24,0.131
	c0.056,0.034,0.112,0.067,0.165,0.105c0.075,0.054,0.146,0.113,0.214,0.173c0.047,0.041,0.095,0.081,0.139,0.125
	c0.065,0.065,0.124,0.136,0.183,0.208c0.038,0.046,0.078,0.09,0.112,0.138c0.021,0.03,0.038,0.062,0.059,0.093l-1.524-1.122
	C54.966,34.15,55.04,34.172,55.11,34.198z M52.357,32.732l-0.749,1.091l0.031,0.022l0.749-1.091l1.589,1.168l-0.742,1.081
	l0.029,0.02l0.743-1.078l1.588,1.168l-0.733,1.07l0.029,0.02l0.734-1.068l1.147,0.844c0.038,0.122,0.069,0.245,0.089,0.366
	c0.023,0.14,0.029,0.288,0.023,0.437l-0.398,0.581l0.031,0.022l0.362-0.527c-0.029,0.463-0.184,0.949-0.45,1.373
	c-0.455,0.72-1.164,1.194-2,1.336c-0.194,0.033-0.389,0.044-0.583,0.043l-5.065-3.625l2.688-3.906L52.357,32.732z M51.302,31.664
	l-2.941,4.282l-0.35-0.255l2.941-4.279L51.302,31.664z M50.36,30.399l0.416,0.301l-3.377,4.913l-0.414-0.299L50.36,30.399z
	 M43.915,31.748c0.217-1.154,0.963-2.328,1.859-2.926c0.469-0.31,0.971-0.47,1.488-0.47c0.904,0,1.805,0.501,2.289,1.271
	c0.153,0.242,0.256,0.532,0.315,0.84l-2.473,3.598c-0.323,0.078-0.66,0.126-1.007,0.126c-1.045,0-1.953-0.368-2.312-0.939
	C43.856,32.899,43.8,32.368,43.915,31.748z"/>
<path fill="#010101" d="M38.837,39.139c2.143,0,3.881-0.951,3.881-2.126c0-1.174-1.738-2.126-3.881-2.126
	c-2.14,0-3.878,0.953-3.878,2.126C34.958,38.188,36.697,39.139,38.837,39.139z M38.837,35.584c0.951,0,1.723,0.396,1.723,0.888
	c0,0.49-0.771,0.888-1.723,0.888c-0.949,0-1.72-0.398-1.72-0.888C37.117,35.98,37.888,35.584,38.837,35.584z"/>
<path fill="#FFFFFF" d="M23.988,39.566c0.256,0.043,0.542,0.047,0.835,0.025l4.086-2.927l-2.684-3.905l-0.892,0.656l0.75,1.09
	l-0.029,0.022l-0.75-1.09l-1.588,1.167l0.742,1.08l-0.031,0.022l-0.741-1.079l-1.59,1.169l0.735,1.071l-0.031,0.02l-0.734-1.068
	l-0.463,0.34c-0.015,0.063-0.037,0.125-0.047,0.187c-0.096,0.596,0.066,1.3,0.436,1.885C22.443,38.951,23.152,39.425,23.988,39.566z
	"/>
<path fill="#FFFFFF" d="M14.648,44.089l0.006,0.011c0.076,0.108,0.178,0.183,0.283,0.206h0.002c0.115,0.024,0.535,0.024,1.941-0.501
	h0.002c0.11-0.04,0.235-0.089,0.351-0.133c-0.369-0.846-0.634-1.722-0.783-2.623c-0.288,0.339-0.562,0.669-0.797,0.969v0.002
	c-0.951,1.188-1.092,1.593-1.107,1.714v0.003c-0.016,0.106,0.02,0.232,0.094,0.343L14.648,44.089z"/>
<path fill="#11121B" d="M30.822,37.101c0.098,0.14,0.094,0.264,0.041,0.35c-0.018,0.024-0.037,0.047-0.059,0.062
	c-0.018,0.013-0.043,0.024-0.07,0.036c-0.098,0.022-0.215-0.016-0.312-0.158l-0.486-0.69c-0.009-0.013-0.029-0.01-0.042-0.019
	l-0.36,0.26c0.003,0.017-0.006,0.039,0.003,0.052l0.482,0.691c0.178,0.257,0.439,0.319,0.688,0.259
	c0.105-0.027,0.209-0.071,0.301-0.137c0.098-0.074,0.174-0.16,0.234-0.255c0.133-0.219,0.158-0.492-0.02-0.749l-0.335-0.479
	l-0.402,0.292L30.822,37.101z"/>
<polygon fill="#FFFFFF" points="29.681,36.373 26.74,32.093 26.39,32.346 29.332,36.625 "/>
<polygon fill="#FFFFFF" points="30.707,35.994 27.332,31.082 26.916,31.382 30.292,36.295 "/>
<path fill="#FFFFFF" d="M60.812,43.126c1.406,0.522,1.826,0.522,1.941,0.498h0.004c0.104-0.022,0.207-0.098,0.281-0.206l0.006-0.011
	l0.008-0.009c0.076-0.111,0.109-0.235,0.096-0.343l-0.002-0.002c-0.016-0.12-0.154-0.527-1.107-1.714v-0.002
	c-0.185-0.236-0.394-0.49-0.612-0.752c-0.104,0.868-0.31,1.717-0.618,2.539c0.001,0,0.001,0,0.002,0L60.812,43.126z"/>
<path fill="#FFFFFF" stroke="#000000" stroke-width="0.2835" stroke-miterlimit="10" d="M53.848,39.61
	c0.194,0,0.389-0.01,0.583-0.043c0.836-0.142,1.545-0.616,2-1.336c0.267-0.424,0.421-0.91,0.45-1.373l-0.362,0.527l-0.031-0.022
	l0.398-0.581c0.006-0.149,0-0.296-0.023-0.437c-0.02-0.121-0.051-0.244-0.089-0.366l-1.147-0.844l-0.734,1.068l-0.029-0.02
	l0.733-1.07l-1.588-1.168l-0.743,1.078l-0.029-0.02l0.742-1.081l-1.589-1.168l-0.749,1.091l-0.031-0.022l0.749-1.091l-0.888-0.653
	l-2.688,3.906L53.848,39.61z"/>
<path fill="#11121B" d="M47.757,36.021l-0.484,0.691c-0.1,0.139-0.217,0.177-0.314,0.155c-0.025-0.011-0.053-0.022-0.068-0.034
	c-0.023-0.018-0.041-0.04-0.061-0.062c-0.053-0.087-0.057-0.213,0.041-0.352l0.336-0.483l-0.401-0.292l-0.335,0.478
	c-0.176,0.257-0.15,0.529-0.02,0.749c0.061,0.095,0.137,0.182,0.234,0.255c0.092,0.066,0.197,0.111,0.303,0.14
	c0.246,0.058,0.506-0.004,0.686-0.261l0.484-0.691c0.01-0.013,0-0.034,0.004-0.051l-0.36-0.261
	C47.787,36.009,47.766,36.007,47.757,36.021z"/>
<polygon fill="#FFFFFF" points="48.36,35.945 51.302,31.664 50.952,31.411 48.011,35.69 "/>
<polygon fill="#FFFFFF" points="47.399,35.613 50.776,30.7 50.36,30.399 46.985,35.314 "/>
<path fill="#FFFFFF" d="M39.183,47.911c6.434,0,12.138-1.842,15.731-4.673c2.432-1.965,3.888-4.392,3.888-7.028
	c0-1.198-0.303-2.354-0.855-3.444c-2.523-4.707-9.979-8.128-18.764-8.128c-10.853,0-19.683,5.221-19.683,11.637
	S28.33,47.911,39.183,47.911z M39.056,47.147c-0.672,0-1.389-0.217-1.919-0.583c-0.637-0.438-0.975-1.044-0.975-1.751
	c0-1.47,1.541-3.147,2.894-3.147c1.262,0,2.893,1.46,2.893,3.015C41.948,46.135,40.423,47.147,39.056,47.147z M43.731,31.704
	c0.229-1.207,1.01-2.439,1.947-3.063c0.5-0.332,1.031-0.5,1.584-0.5c0.965,0,1.922,0.534,2.443,1.36
	c0.14,0.222,0.233,0.484,0.302,0.758l0.159-0.231c0.059-0.084,0.174-0.104,0.256-0.044l0.715,0.518
	c0.082,0.062,0.104,0.177,0.045,0.264L51.021,31l0.794,0.576l-0.134,0.194l2.824,2.077c0.003,0,0.005,0,0.008,0.001l0.001-0.015
	c1.424,0.155,2.354,1.362,2.533,2.477c0.105,0.651-0.07,1.415-0.465,2.046c-0.484,0.765-1.236,1.27-2.123,1.422
	c-0.199,0.034-0.4,0.049-0.6,0.049c-0.638,0-1.261-0.166-1.807-0.419c-0.22-0.102-0.424-0.222-0.615-0.352
	c-0.077-0.052-0.143-0.106-0.213-0.162c-0.116-0.091-0.223-0.184-0.322-0.283c-0.038-0.038-0.091-0.071-0.125-0.11l0.01-0.011
	c-0.278-0.31-0.476-0.646-0.537-0.993l-1.68-1.204l-0.123,0.179l-0.287-0.208c-0.004,0.017,0.006,0.038-0.004,0.051l-0.484,0.691
	c-0.18,0.257-0.439,0.319-0.686,0.261c-0.105-0.029-0.211-0.073-0.303-0.14c-0.098-0.073-0.174-0.16-0.234-0.255
	c-0.131-0.219-0.156-0.491,0.02-0.749l0.335-0.478l-0.183-0.133c-0.08-0.06-0.102-0.177-0.043-0.261l0.645-0.938
	c-0.273,0.051-0.551,0.087-0.836,0.087c-1.104,0-2.07-0.403-2.465-1.028C43.673,32.975,43.604,32.381,43.731,31.704z M43.593,41.506
	c0.099-0.119,0.23-0.223,0.383-0.316c0.041-0.025,0.095-0.043,0.14-0.067c0.122-0.062,0.246-0.122,0.39-0.17
	c0.075-0.025,0.16-0.043,0.241-0.065c0.128-0.034,0.255-0.065,0.393-0.088c0.104-0.017,0.213-0.028,0.323-0.039
	c0.128-0.013,0.256-0.023,0.389-0.026c0.068-0.003,0.13-0.014,0.199-0.014c0.081,0,0.16,0.009,0.24,0.012
	c0.047,0.002,0.092,0.004,0.138,0.007c0.192,0.013,0.379,0.034,0.563,0.064c0.034,0.005,0.067,0.01,0.102,0.016
	c0.19,0.035,0.374,0.08,0.552,0.134c0.033,0.01,0.067,0.017,0.1,0.028c0.206,0.066,0.403,0.143,0.583,0.235
	c0.787,0.401,1.291,1.021,1.42,1.75c0.1,0.569-0.041,1.134-0.387,1.55c-0.114,0.14-0.264,0.275-0.437,0.403
	c-0.093,0.068-0.2,0.122-0.304,0.18c-0.092,0.053-0.175,0.109-0.276,0.155c-0.097,0.042-0.2,0.069-0.303,0.104
	c-0.128,0.044-0.252,0.092-0.391,0.122c-0.08,0.017-0.163,0.017-0.244,0.027c-0.157,0.023-0.311,0.055-0.476,0.055
	c-0.259,0-0.527-0.032-0.799-0.099c-0.269-0.063-0.529-0.159-0.781-0.287c-0.996-0.507-1.814-1.542-1.986-2.512
	C43.28,42.191,43.358,41.79,43.593,41.506z M38.552,25.283c1.369,0,2.893,1.315,2.893,3.2c0,0.913-0.346,1.89-0.951,2.685
	c-0.586,0.767-1.311,1.225-1.941,1.225c-1.351,0-2.892-2.177-2.892-4.089C35.66,26.439,37.162,25.283,38.552,25.283z M38.837,34.886
	c2.143,0,3.881,0.953,3.881,2.126c0,1.176-1.738,2.126-3.881,2.126c-2.14,0-3.878-0.951-3.878-2.126
	C34.958,35.839,36.697,34.886,38.837,34.886z M34.189,41.506c0.234,0.284,0.314,0.685,0.23,1.159
	c-0.172,0.97-0.99,2.004-1.988,2.512c-0.252,0.128-0.513,0.223-0.78,0.287c-0.272,0.066-0.541,0.099-0.798,0.099
	c-0.167,0-0.323-0.031-0.481-0.055c-0.079-0.011-0.16-0.01-0.238-0.027c-0.142-0.03-0.269-0.08-0.4-0.125
	c-0.099-0.034-0.199-0.059-0.292-0.1c-0.105-0.047-0.191-0.105-0.286-0.16c-0.101-0.057-0.206-0.108-0.296-0.175
	c-0.173-0.128-0.322-0.264-0.438-0.403c-0.344-0.416-0.484-0.981-0.385-1.55c0.129-0.729,0.633-1.349,1.42-1.75
	c0.178-0.09,0.373-0.167,0.576-0.233c0.042-0.013,0.085-0.023,0.128-0.036c0.167-0.05,0.338-0.092,0.517-0.125
	c0.046-0.008,0.091-0.015,0.138-0.022c0.171-0.027,0.345-0.047,0.523-0.059c0.058-0.004,0.115-0.007,0.173-0.009
	c0.075-0.003,0.148-0.011,0.223-0.011c0.065,0,0.123,0.01,0.187,0.012c0.141,0.004,0.276,0.015,0.412,0.029
	c0.105,0.011,0.208,0.021,0.308,0.037c0.141,0.023,0.271,0.056,0.401,0.09c0.08,0.021,0.163,0.039,0.237,0.064
	c0.142,0.047,0.266,0.107,0.387,0.169c0.045,0.024,0.1,0.042,0.142,0.068C33.959,41.283,34.09,41.388,34.189,41.506z M21.373,36.309
	c0.19-1.176,1.179-2.376,2.657-2.469l-0.001-0.004c0.04-0.003,0.077-0.011,0.118-0.012l1.866-1.373l-0.134-0.195l0.792-0.574
	l-0.161-0.234c-0.059-0.087-0.039-0.206,0.045-0.266l0.715-0.516c0.022-0.016,0.047-0.012,0.071-0.017
	c0.023-0.508,0.152-0.996,0.394-1.38c0.521-0.827,1.48-1.358,2.441-1.358c0.555,0,1.088,0.169,1.586,0.499
	c0.938,0.626,1.721,1.858,1.947,3.065c0.127,0.678,0.059,1.271-0.191,1.667c-0.395,0.627-1.361,1.03-2.463,1.03
	c-0.444,0-0.877-0.068-1.282-0.19l1.341,1.952c0.059,0.084,0.039,0.201-0.043,0.261l-0.183,0.133l0.335,0.479
	c0.178,0.257,0.152,0.529,0.02,0.749c-0.061,0.095-0.137,0.181-0.234,0.255c-0.092,0.066-0.195,0.11-0.301,0.137
	c-0.248,0.06-0.51-0.002-0.688-0.259l-0.482-0.691c-0.01-0.014,0-0.035-0.003-0.052l-0.29,0.209l-0.123-0.179L28.1,37.705
	c-0.05,0.154-0.121,0.304-0.216,0.451l0.012,0.011c-0.026,0.04-0.063,0.078-0.092,0.118c-0.034,0.046-0.069,0.09-0.107,0.135
	c-0.077,0.091-0.161,0.179-0.252,0.265c-0.038,0.037-0.076,0.072-0.116,0.107c-0.108,0.093-0.225,0.18-0.349,0.264
	c-0.033,0.023-0.064,0.046-0.099,0.067c-0.14,0.09-0.287,0.17-0.441,0.245c-0.028,0.014-0.054,0.029-0.082,0.042
	c-0.036,0.017-0.068,0.038-0.104,0.053c-0.058,0.025-0.118,0.033-0.176,0.057c-0.102,0.039-0.2,0.083-0.305,0.114l-0.005-0.016
	c-0.406,0.124-0.816,0.208-1.215,0.208c-0.201,0-0.4-0.018-0.592-0.049c-0.885-0.152-1.639-0.657-2.121-1.422
	C21.443,37.724,21.267,36.959,21.373,36.309z"/>
<path fill="#010101" d="M14.353,44.317c0.129,0.188,0.316,0.316,0.512,0.358c0.328,0.071,1.027-0.099,2.139-0.513
	c0.122-0.044,0.257-0.097,0.385-0.146c2.922,6.157,11.45,10.616,21.517,10.616c10.363,0,19.091-4.723,21.758-11.16
	c0.008,0.003,0.018,0.007,0.025,0.01c1.111,0.412,1.811,0.582,2.141,0.511c0.195-0.04,0.381-0.17,0.51-0.358
	c0.004-0.005,0.004-0.007,0.006-0.011c0.133-0.188,0.195-0.416,0.166-0.622c-0.047-0.341-0.434-0.963-1.188-1.901
	c-0.252-0.322-0.542-0.671-0.844-1.026c0.017-0.245,0.027-0.491,0.027-0.739c0-8.45-10.119-15.3-22.602-15.3
	c-12.48,0-22.599,6.851-22.599,15.3c0,0.412,0.031,0.817,0.078,1.22c-0.366,0.425-0.716,0.843-1.016,1.225
	c-0.752,0.939-1.141,1.562-1.188,1.9c-0.027,0.208,0.033,0.436,0.166,0.625C14.349,44.311,14.351,44.313,14.353,44.317z
	 M61.426,40.584c0.219,0.262,0.428,0.516,0.612,0.752v0.002c0.953,1.187,1.092,1.595,1.107,1.714l0.002,0.002
	c0.014,0.108-0.02,0.232-0.096,0.343l-0.008,0.009l-0.006,0.011c-0.074,0.108-0.178,0.184-0.281,0.206h-0.004
	c-0.115,0.024-0.535,0.024-1.941-0.498l-0.002-0.003c-0.001,0-0.001,0-0.002,0C61.116,42.301,61.322,41.452,61.426,40.584z
	 M39.114,24.397c2.252,0,4.407,0.238,6.423,0.656c-2.023-0.405-4.158-0.627-6.354-0.627c-5.033,0-9.766,1.117-13.443,3.136
	C29.252,25.603,33.944,24.397,39.114,24.397z M39.183,24.638c8.785,0,16.24,3.422,18.764,8.128c0.553,1.09,0.855,2.246,0.855,3.444
	c0,2.636-1.456,5.062-3.888,7.028c-3.594,2.831-9.298,4.673-15.731,4.673c-10.853,0-19.683-5.219-19.683-11.636
	S28.33,24.638,39.183,24.638z M14.546,43.734c0.016-0.121,0.156-0.526,1.107-1.714v-0.002c0.235-0.3,0.509-0.63,0.797-0.969
	c0.148,0.901,0.414,1.777,0.783,2.623c-0.116,0.044-0.241,0.093-0.351,0.133H16.88c-1.406,0.525-1.826,0.525-1.941,0.501h-0.002
	c-0.105-0.023-0.207-0.098-0.283-0.206l-0.006-0.011l-0.008-0.009c-0.074-0.111-0.109-0.237-0.094-0.343V43.734z"/>
<path fill="#010101" d="M33.278,40.953c-0.074-0.025-0.157-0.043-0.237-0.064c-0.13-0.035-0.261-0.067-0.401-0.09
	c-0.1-0.016-0.203-0.026-0.308-0.037c-0.136-0.014-0.271-0.025-0.412-0.029c-0.064-0.002-0.122-0.012-0.187-0.012
	c-0.075,0-0.148,0.008-0.223,0.011c-0.058,0.002-0.115,0.005-0.173,0.009c-0.178,0.012-0.352,0.032-0.523,0.059
	c-0.046,0.007-0.092,0.014-0.138,0.022c-0.178,0.034-0.35,0.076-0.517,0.125c-0.042,0.012-0.086,0.022-0.128,0.036
	c-0.203,0.067-0.398,0.143-0.576,0.233c-0.787,0.401-1.291,1.021-1.42,1.75c-0.1,0.569,0.041,1.134,0.385,1.55
	c0.115,0.14,0.265,0.275,0.438,0.403c0.09,0.066,0.195,0.118,0.296,0.175c0.095,0.055,0.181,0.113,0.286,0.16
	c0.093,0.041,0.194,0.066,0.292,0.1c0.131,0.046,0.258,0.095,0.4,0.125c0.078,0.017,0.159,0.016,0.238,0.027
	c0.159,0.024,0.314,0.055,0.481,0.055c0.258,0,0.526-0.032,0.798-0.099c0.267-0.063,0.528-0.158,0.78-0.287
	c0.998-0.507,1.816-1.542,1.988-2.512c0.084-0.474,0.004-0.875-0.23-1.159c-0.099-0.119-0.23-0.223-0.382-0.316
	c-0.042-0.026-0.096-0.044-0.142-0.068C33.544,41.06,33.42,41,33.278,40.953z M34.052,41.652c0.242,0.291,0.234,0.689,0.184,0.971
	c-0.162,0.908-0.936,1.878-1.881,2.361c-0.217,0.111-0.444,0.19-0.675,0.25c-0.065,0.017-0.129,0.024-0.194,0.037
	c-0.168,0.033-0.338,0.054-0.511,0.06c-0.074,0.002-0.149,0.004-0.222,0.002c-0.186-0.006-0.361-0.028-0.53-0.061
	c-0.125-0.025-0.243-0.057-0.36-0.093c-0.108-0.034-0.215-0.068-0.313-0.111c-0.093-0.04-0.179-0.084-0.264-0.129
	c-0.085-0.048-0.167-0.097-0.241-0.148c-0.059-0.04-0.119-0.078-0.171-0.119c-0.123-0.1-0.234-0.2-0.314-0.298
	c-0.305-0.368-0.428-0.866-0.34-1.362c0.117-0.66,0.584-1.229,1.312-1.6c0.158-0.08,0.325-0.148,0.497-0.208
	c0.083-0.029,0.174-0.048,0.262-0.073c0.094-0.025,0.187-0.056,0.283-0.077c0.083-0.018,0.169-0.027,0.254-0.041
	c0.108-0.018,0.216-0.039,0.326-0.05c0.008-0.001,0.017,0,0.025-0.001c0.181-0.018,0.362-0.027,0.541-0.027
	C32.748,40.935,33.687,41.21,34.052,41.652z"/>
<path fill="#010101" d="M23.96,39.776c0.191,0.031,0.391,0.049,0.592,0.049c0.399,0,0.81-0.084,1.215-0.208l0.005,0.016
	c0.104-0.032,0.203-0.075,0.305-0.114c0.058-0.023,0.119-0.032,0.176-0.057c0.036-0.016,0.068-0.037,0.104-0.053
	c0.028-0.013,0.054-0.028,0.082-0.042c0.154-0.075,0.301-0.155,0.441-0.245c0.034-0.021,0.065-0.044,0.099-0.067
	c0.124-0.084,0.241-0.171,0.349-0.264c0.041-0.035,0.078-0.07,0.116-0.107c0.092-0.086,0.176-0.174,0.252-0.265
	c0.038-0.045,0.073-0.089,0.107-0.135c0.029-0.04,0.066-0.078,0.092-0.118l-0.012-0.011c0.095-0.147,0.167-0.297,0.216-0.451
	l1.021-0.731l0.123,0.179l0.29-0.209l0.36-0.26l0.143-0.104l0.061,0.088c0.061,0.086,0.174,0.106,0.258,0.046l0.13-0.095
	l0.402-0.292l0.183-0.133c0.082-0.06,0.102-0.177,0.043-0.261l-1.341-1.952c0.405,0.122,0.838,0.19,1.282,0.19
	c1.102,0,2.068-0.403,2.463-1.03c0.25-0.396,0.318-0.99,0.191-1.667c-0.227-1.207-1.01-2.438-1.947-3.065
	c-0.498-0.33-1.031-0.499-1.586-0.499c-0.961,0-1.92,0.532-2.441,1.358c-0.242,0.384-0.37,0.872-0.394,1.38
	c-0.024,0.004-0.049,0.001-0.071,0.017l-0.715,0.516c-0.084,0.06-0.104,0.179-0.045,0.266l0.161,0.234l-0.792,0.574l0.134,0.195
	l-1.866,1.373c-0.041,0.001-0.078,0.009-0.118,0.012l0.001,0.004c-1.479,0.093-2.467,1.293-2.657,2.469
	c-0.105,0.651,0.07,1.415,0.467,2.046C22.322,39.119,23.076,39.624,23.96,39.776z M27.69,38.111
	c-0.064,0.091-0.134,0.178-0.208,0.261c-0.055,0.06-0.11,0.119-0.171,0.176c-0.049,0.046-0.102,0.091-0.154,0.134
	c-0.103,0.083-0.208,0.166-0.325,0.24c-0.025,0.017-0.051,0.032-0.078,0.048c-0.13,0.08-0.267,0.153-0.409,0.221
	c-0.043,0.02-0.086,0.04-0.13,0.057c-0.113,0.05-0.23,0.093-0.349,0.133c-0.061,0.02-0.122,0.038-0.184,0.056l2.141-1.533
	C27.786,37.974,27.737,38.042,27.69,38.111z M27.888,29.394c0.484-0.773,1.385-1.271,2.287-1.271c0.521,0,1.021,0.157,1.49,0.472
	c0.895,0.593,1.645,1.769,1.859,2.923c0.117,0.618,0.059,1.152-0.16,1.499c-0.361,0.572-1.268,0.939-2.311,0.939
	c-0.523,0-1.028-0.101-1.487-0.275l-2.042-2.972c0,0-0.001,0-0.002-0.002C27.538,30.223,27.658,29.757,27.888,29.394z
	 M27.332,31.082l3.375,4.913l-0.414,0.301l-3.377-4.913L27.332,31.082z M26.74,32.093l2.941,4.279l-0.35,0.252l-2.941-4.279
	L26.74,32.093z M21.833,35.523c0.002-0.004,0.004-0.009,0.006-0.014c0.208-0.394,0.514-0.753,0.9-1.021
	c0.012-0.008,0.021-0.018,0.033-0.025c0.104-0.069,0.217-0.125,0.332-0.18c0.038-0.018,0.072-0.041,0.11-0.056
	c0.096-0.041,0.201-0.066,0.303-0.095c0.066-0.019,0.129-0.041,0.197-0.054c0.031-0.006,0.064-0.005,0.096-0.009L21.833,35.523
	C21.833,35.524,21.833,35.524,21.833,35.523z M21.556,36.346c0.01-0.062,0.032-0.124,0.047-0.187l0.463-0.34l0.734,1.068l0.031-0.02
	l-0.735-1.071l1.59-1.169l0.741,1.079l0.031-0.022l-0.742-1.08l1.588-1.167l0.75,1.09l0.029-0.022l-0.75-1.09l0.892-0.656
	l2.684,3.905l-4.086,2.927c-0.293,0.022-0.579,0.018-0.835-0.025c-0.836-0.142-1.545-0.616-1.996-1.336
	C21.623,37.646,21.46,36.942,21.556,36.346z"/>
<path fill="#010101" d="M45.351,45.177c0.252,0.128,0.513,0.223,0.781,0.287c0.271,0.066,0.54,0.099,0.799,0.099
	c0.165,0,0.318-0.031,0.476-0.055c0.081-0.011,0.164-0.011,0.244-0.027c0.139-0.03,0.263-0.078,0.391-0.122
	c0.103-0.034,0.206-0.061,0.303-0.104c0.102-0.046,0.185-0.102,0.276-0.155c0.104-0.059,0.211-0.112,0.304-0.18
	c0.173-0.127,0.322-0.263,0.437-0.403c0.346-0.416,0.486-0.981,0.387-1.55c-0.129-0.729-0.633-1.349-1.42-1.75
	c-0.18-0.092-0.377-0.168-0.583-0.235c-0.032-0.011-0.066-0.018-0.1-0.028c-0.178-0.054-0.361-0.099-0.552-0.134
	c-0.034-0.006-0.067-0.01-0.102-0.016c-0.185-0.031-0.371-0.052-0.563-0.064c-0.046-0.003-0.091-0.005-0.138-0.007
	c-0.08-0.003-0.159-0.012-0.24-0.012c-0.069,0-0.131,0.011-0.199,0.014c-0.133,0.003-0.261,0.013-0.389,0.026
	c-0.11,0.011-0.219,0.022-0.323,0.039c-0.138,0.023-0.265,0.055-0.393,0.088c-0.081,0.021-0.166,0.04-0.241,0.065
	c-0.144,0.048-0.268,0.107-0.39,0.17c-0.045,0.024-0.099,0.042-0.14,0.067c-0.152,0.093-0.284,0.197-0.383,0.316
	c-0.234,0.284-0.312,0.685-0.229,1.159C43.536,43.635,44.354,44.669,45.351,45.177z M43.731,41.652
	c0.365-0.442,1.305-0.717,2.33-0.717c0.305,0,0.614,0.031,0.921,0.082c0.074,0.013,0.151,0.021,0.225,0.036
	c0.104,0.022,0.205,0.055,0.307,0.083c0.08,0.023,0.163,0.041,0.239,0.067c0.173,0.06,0.34,0.128,0.498,0.208
	c0.729,0.37,1.195,0.939,1.312,1.6c0.088,0.496-0.037,0.994-0.34,1.362c-0.081,0.098-0.191,0.199-0.314,0.298
	c-0.052,0.042-0.112,0.08-0.171,0.119c-0.074,0.052-0.156,0.101-0.241,0.148c-0.085,0.045-0.171,0.09-0.264,0.129
	c-0.098,0.043-0.205,0.076-0.312,0.111c-0.117,0.037-0.235,0.068-0.36,0.093c-0.168,0.033-0.344,0.055-0.529,0.061
	c-0.073,0.002-0.148,0-0.223-0.002c-0.173-0.006-0.343-0.027-0.51-0.06c-0.066-0.013-0.131-0.021-0.197-0.037
	c-0.229-0.061-0.456-0.14-0.673-0.25c-0.947-0.483-1.721-1.453-1.881-2.361C43.497,42.342,43.489,41.943,43.731,41.652z"/>
<path fill="#010101" d="M38.552,32.393c0.631,0,1.355-0.458,1.941-1.225c0.605-0.795,0.951-1.772,0.951-2.685
	c0-1.885-1.523-3.2-2.893-3.2c-1.39,0-2.892,1.156-2.892,3.021C35.66,30.215,37.201,32.393,38.552,32.393z M38.552,25.496
	c1.279,0,2.707,1.227,2.707,2.987c0,0.862-0.332,1.788-0.908,2.545c-0.549,0.72-1.221,1.152-1.799,1.152
	c-1.237,0-2.705-2.102-2.705-3.876C35.847,26.569,37.252,25.496,38.552,25.496z"/>
<path fill="#010101" d="M39.056,41.666c-1.354,0-2.894,1.677-2.894,3.147c0,0.707,0.338,1.313,0.975,1.751
	c0.53,0.366,1.247,0.583,1.919,0.583c1.367,0,2.893-1.012,2.893-2.467C41.948,43.126,40.317,41.666,39.056,41.666z M39.056,46.937
	c-1.671,0-2.707-1.101-2.707-2.124c0-1.342,1.466-2.935,2.707-2.935c1.156,0,2.705,1.385,2.705,2.802
	C41.761,46.012,40.335,46.937,39.056,46.937z"/>
<ellipse fill="#FFFFFF" cx="38.837" cy="36.472" rx="1.723" ry="0.888"/>
<path fill="none" stroke="#010101" stroke-width="0.2835" stroke-miterlimit="10" d="M21.556,36.346
	c0.01-0.062,0.032-0.124,0.047-0.187l0.463-0.34l0.734,1.068l0.031-0.02l-0.735-1.071l1.59-1.169l0.741,1.079l0.031-0.022
	l-0.742-1.08l1.588-1.167l0.75,1.09l0.029-0.022l-0.75-1.09l0.892-0.656l2.684,3.905l-4.086,2.927
	c-0.293,0.022-0.579,0.018-0.835-0.025c-0.836-0.142-1.545-0.616-1.996-1.336C21.623,37.646,21.46,36.942,21.556,36.346z"/>
<path fill="none" stroke="#010101" stroke-miterlimit="10" d="M21.834,82.402c-2.029,0-3.729,1.046-4.285,2.47
	c-0.123,0.313-0.209,0.641-0.209,0.985c0,1.906,2.016,3.458,4.494,3.458c1.162,0,2.215-0.352,3.014-0.911
	c0.902-0.632,1.48-1.535,1.48-2.547C26.328,83.952,24.311,82.402,21.834,82.402z M21.834,88.764c-2.17,0-3.932-1.302-3.932-2.906
	c0-1.602,1.762-2.906,3.932-2.906c2.166,0,3.932,1.305,3.932,2.906C25.766,87.462,24,88.764,21.834,88.764z"/>
</svg>
