<?xml version="1.0" encoding="utf-8"?>
<!-- Generator: Adobe Illustrator 16.0.0, SVG Export Plug-In . SVG Version: 6.00 Build 0)  -->
<!DOCTYPE svg PUBLIC "-//W3C//DTD SVG 1.1//EN" "http://www.w3.org/Graphics/SVG/1.1/DTD/svg11.dtd">
<svg version="1.1" id="Layer_1" xmlns="http://www.w3.org/2000/svg" xmlns:xlink="http://www.w3.org/1999/xlink" x="0px" y="0px"
	 width="29.375px" height="54.25px" viewBox="0 0 29.375 54.25" enable-background="new 0 0 29.375 54.25" xml:space="preserve">
<g>
	<g>
		<path fill="none" d="M8.15,41.282c-0.421,0.188-0.854,0.154-1.279,0.037c-0.191-0.051-0.273-0.029-0.25,0.107
			c0.012,0.125,0.017,0.178,0.021,0.227c0.094,0.803,0.192,1.604,0.28,2.408c0.141,1.285,0.272,2.572,0.411,3.859
			c0.031,0.293,0.073,0.584,0.114,0.875c0.005,0.035,0.026,0.072,0.04,0.105c0.006-0.031,0.017-0.062,0.02-0.094
			c0.054-0.535,0.105-1.07,0.159-1.607c0.084-0.865,0.166-1.734,0.255-2.602c0.111-1.07,0.231-2.139,0.345-3.209
			C8.274,41.304,8.271,41.229,8.15,41.282z"/>
		<path fill="none" d="M8.424,7.229c-0.611-0.375-1.231-0.75-1.885-1.031C5.767,5.862,4.91,5.567,4.103,5.325
			C3.629,5.183,3.618,5.171,3.127,5.093C2.912,5.056,2.517,4.95,2.299,5.341c-0.217,0.393-0.08,0.887,0.394,1.229
			c0.083,0.062,0.169,0.117,0.256,0.17C3.57,7.124,4.191,7.511,4.815,7.888c0.322,0.195,0.504,0.463,0.504,0.848
			c-0.001,2.67,0,4.162,0,6.834H5.306c0,2.592,0,2.83,0.001,5.422c0,0.141-0.005,0.285,0.014,0.424
			c0.014,0.098,0.04,0.219,0.106,0.275c0.253,0.223,0.268,0.508,0.265,0.811c-0.004,0.492,0.019,0.521,0.48,0.697
			c0.144,0.055,0.292,0.102,0.442,0.123c1.107,0.162,2.219,0.156,3.332,0.078c0.663-0.049,0.897-0.361,1.119-1.021
			c0.159-0.469,0.203-0.955,0.212-1.438c0.032-1.578-0.043-1.455-0.085-3.029c-0.047-1.691,0.204-2.703,0.539-4.355
			c0.122-0.604,0.192-0.055,0.23-0.664c0.039-0.648,0.044-1.277,0.015-1.93c-0.004-0.076-0.034-0.15-0.048-0.225
			c-0.067-0.359-0.088-0.52-0.421-0.561c-0.216-0.025-0.436-0.027-0.653-0.025c-0.674,0.004-0.941-0.168-1.195-0.801
			C9.548,9.079,9.46,8.796,9.349,8.524C9.14,8.022,8.901,7.522,8.424,7.229z"/>
		<path fill="none" d="M11.038,25.21c0-0.385,0.001-0.77-0.001-1.154c-0.001-0.102-0.008-0.207-0.033-0.307
			c-0.011-0.037-0.082-0.094-0.117-0.088c-0.445,0.072-0.606,0.305-0.55,0.748c0.187,1.467,0.128,2.805-0.884,3.938
			c0.002,0-0.478,0.473-0.739,1.244c-0.183,0.547-0.131,2.645-0.164,3.104c-0.045,0.615-0.07,0.051-0.07,0.664
			c0.002,1.359-0.037,1.541-0.015,2.9c0.011,0.688-0.123,1.096-0.761,1.32c-0.312,0.107-0.702-0.059-1.013,0.053
			c-0.471,0.17-0.58,0.598-0.255,0.975c0.155,0.18,0.348,0.305,0.595,0.312c0.217,0.006,0.437,0.018,0.654-0.004
			c0.886-0.086,1.512-0.68,1.511-1.502c0-0.998-0.068-0.82-0.09-1.82c-0.021-1.014-0.044-0.85-0.027-1.863
			c0.015-0.881,0.016-1.764,0.046-2.648c0.017-0.598-0.017-1.182,0.264-1.711c0.251-0.473,0.732-0.936,1.035-1.379
			c0.41-0.598,0.679-1.23,0.632-1.973c-0.019-0.268-0.003-0.539-0.003-0.809H11.038z"/>
		<path d="M6.94,1.872c-0.551,0-1.102-0.012-1.654,0.004C4.743,1.892,4.534,2.067,4.475,2.521c0.089,0.688,0.31,1.082,1.077,1.305
			c0.049,0.016,0.1,0.027,0.148,0.047c0.482,0.182,0.654,0.537,0.529,1.039C6.192,5.06,6.141,5.108,5.999,5.052
			c-0.06-0.021-0.12-0.043-0.182-0.061c-0.74-0.197-1.473-0.436-2.224-0.576C3.111,4.323,2.852,4.271,2.356,4.286
			C2.073,4.298,1.617,4.567,1.485,4.827C1.272,5.245,1.22,5.683,1.333,6.134C1.487,6.759,1.88,7.179,2.441,7.485
			c0.516,0.281,1.011,0.602,1.501,0.928c0.302,0.199,0.47,0.504,0.498,0.871c0.033,0.42,0.079,0.844,0.08,1.264
			c0.006,3.697,0.009,5.039,0,8.738c-0.002,1.178-0.038,1.18-0.066,2.359c-0.012,0.535,0.116,1.006,0.483,1.416
			c0.128,0.143,0.234,0.346,0.257,0.537c0.077,0.623,0.125,1.248,0.155,1.875c0.016,0.324,0.103,0.6,0.311,0.846
			c0.218,0.258,0.352,0.551,0.412,0.896c0.081,0.449,0.192,0.9,0.336,1.338c0.122,0.371,0.196,0.734,0.195,1.125
			c-0.005,2.953-0.009,3.553,0.003,6.504c0.002,0.482-0.088,0.887-0.403,1.275c-0.451,0.555-0.38,1.131,0.119,1.662
			c0.053,0.055,0.112,0.105,0.159,0.166c0.25,0.342,0.26,0.896-0.014,1.086c-0.279,0.189-0.314,0.418-0.275,0.729
			c0.144,1.117,0.272,2.236,0.388,3.355c0.141,1.352,0.256,2.703,0.4,4.055c0.052,0.482,0.151,0.961,0.236,1.439
			c0.027,0.15,0.077,0.33,0.271,0.316c0.162-0.01,0.268-0.137,0.298-0.309c0.023-0.123,0.056-0.25,0.069-0.377
			c0.085-0.762,0.171-1.525,0.249-2.291c0.1-0.992,0.188-1.988,0.289-2.98c0.107-1.047,0.209-2.092,0.34-3.133
			c0.035-0.27,0.023-0.477-0.207-0.643c-0.049-0.035-0.096-0.096-0.11-0.154c-0.12-0.482-0.148-1.074,0.391-1.402
			c0.4-0.24,0.642-0.629,0.687-1.105c0.05-0.533,0.1-1.072,0.101-1.609c0.004-1.113-0.029-1.053-0.039-2.166
			c-0.011-1.387,0.003-1.596-0.021-2.982c-0.017-0.945,0.325-1.725,0.97-2.387c0.504-0.52,0.854-1.123,0.977-1.84
			c0.072-0.416,0.121-0.836,0.14-1.26c0.022-0.459-0.026-0.924,0.005-1.385c0.024-0.324,0.071-0.672,0.206-0.965
			c0.41-0.881,0.5-1.785,0.346-2.738c-0.07-0.428-0.095-0.865-0.094-1.299c0.005-1.092,0.045-1.002,0.055-2.094
			c0.013-1.35,0.21-1.502,0.396-2.834c0.11-0.785,0.262-0.395,0.299-1.184c0.053-1.152,0.042-2.309-0.342-3.426
			c-0.18-0.523-0.159-1.016,0.337-1.381c0.021-0.016,0.036-0.037,0.053-0.057c0.15-0.195,0.128-0.365-0.092-0.473
			c-0.184-0.09-0.384-0.145-0.581-0.197c-0.666-0.172-1.347-0.139-2.025-0.145C9.712,7.45,9.5,7.3,9.457,6.841
			C9.381,6.05,9.352,5.255,9.31,4.462c-0.014-0.295,0.148-0.48,0.412-0.584c0.166-0.064,0.343-0.109,0.505-0.182
			c0.364-0.168,0.66-0.42,0.751-0.822c0.134-0.594,0.125-0.02,0.041-0.619c-0.026-0.193-0.144-0.299-0.316-0.346
			c-0.11-0.027-0.228-0.039-0.342-0.039C9.528,1.866,8.695,1.868,7.862,1.868v0.004C7.556,1.872,7.248,1.87,6.94,1.872z
			 M7.92,44.599c-0.09,0.867-0.171,1.736-0.255,2.602c-0.053,0.537-0.104,1.072-0.159,1.607c-0.003,0.031-0.013,0.062-0.02,0.094
			c-0.014-0.033-0.035-0.07-0.04-0.105c-0.041-0.291-0.083-0.582-0.114-0.875c-0.138-1.287-0.27-2.574-0.411-3.859
			c-0.088-0.805-0.187-1.605-0.28-2.408c-0.005-0.049-0.01-0.102-0.021-0.227c-0.023-0.137,0.059-0.158,0.25-0.107
			c0.425,0.117,0.858,0.15,1.279-0.037c0.121-0.053,0.125,0.021,0.116,0.107C8.152,42.46,8.032,43.528,7.92,44.599z M10.423,27.991
			c-0.303,0.443-0.784,0.906-1.035,1.379c-0.28,0.529-0.247,1.113-0.264,1.711c-0.03,0.885-0.031,1.768-0.046,2.648
			c-0.017,1.014,0.006,0.85,0.027,1.863c0.022,1,0.09,0.822,0.09,1.82c0.001,0.822-0.625,1.416-1.511,1.502
			c-0.217,0.021-0.437,0.01-0.654,0.004c-0.247-0.008-0.439-0.133-0.595-0.312c-0.325-0.377-0.216-0.805,0.255-0.975
			c0.312-0.111,0.701,0.055,1.013-0.053c0.638-0.225,0.771-0.633,0.761-1.32c-0.022-1.359,0.017-1.541,0.015-2.9
			c0-0.613,0.024-0.049,0.07-0.664c0.033-0.459-0.019-2.557,0.164-3.104c0.261-0.771,0.741-1.244,0.739-1.244
			c1.012-1.133,1.071-2.471,0.884-3.938c-0.056-0.443,0.104-0.676,0.55-0.748c0.036-0.006,0.106,0.051,0.117,0.088
			c0.025,0.1,0.032,0.205,0.033,0.307c0.003,0.385,0.001,0.77,0.001,1.154h0.013c0,0.27-0.016,0.541,0.003,0.809
			C11.102,26.761,10.833,27.394,10.423,27.991z M9.349,8.524c0.112,0.271,0.199,0.555,0.31,0.826
			c0.254,0.633,0.521,0.805,1.195,0.801c0.217-0.002,0.437,0,0.653,0.025c0.333,0.041,0.354,0.201,0.421,0.561
			c0.014,0.074,0.044,0.148,0.048,0.225c0.029,0.652,0.024,1.281-0.015,1.93c-0.038,0.609-0.108,0.061-0.23,0.664
			c-0.335,1.652-0.586,2.664-0.539,4.355c0.042,1.574,0.117,1.451,0.085,3.029c-0.009,0.482-0.053,0.969-0.212,1.438
			c-0.221,0.66-0.456,0.973-1.119,1.021c-1.113,0.078-2.225,0.084-3.332-0.078c-0.15-0.021-0.298-0.068-0.442-0.123
			c-0.462-0.176-0.484-0.205-0.48-0.697c0.002-0.303-0.012-0.588-0.265-0.811c-0.066-0.057-0.092-0.178-0.106-0.275
			c-0.019-0.139-0.014-0.283-0.014-0.424c-0.001-2.592-0.001-2.83-0.001-5.422h0.013c0-2.672-0.001-4.164,0-6.834
			c0-0.385-0.183-0.652-0.504-0.848C4.191,7.511,3.57,7.124,2.949,6.739c-0.087-0.053-0.173-0.107-0.256-0.17
			C2.219,6.228,2.082,5.733,2.299,5.341C2.517,4.95,2.912,5.056,3.127,5.093c0.491,0.078,0.501,0.09,0.975,0.232
			C4.91,5.567,5.767,5.862,6.539,6.198c0.654,0.281,1.274,0.656,1.885,1.031C8.901,7.522,9.14,8.022,9.349,8.524z M7.872,2.478
			V2.476c0.605,0,1.211-0.002,1.817,0.002c0.083,0,0.168,0.002,0.248,0.008c0.125,0.01,0.209,0.031,0.23,0.072
			c0.062,0.131,0.068,0.26-0.032,0.387C10.07,3.032,9.857,3.085,9.591,3.122C9.475,3.138,9.345,3.146,9.225,3.161L6.299,3.159
			c-0.034-0.004-0.07-0.006-0.106-0.01C5.59,3.099,5.449,3.005,5.395,2.833c-0.018-0.057-0.01-0.115-0.004-0.174
			C5.403,2.524,5.545,2.481,6,2.478c0.4-0.004,0.801,0,1.202,0H7.872z"/>
		<path d="M4.449,2.722c0.002-0.08,0.018-0.135,0.026-0.201C4.468,2.466,4.459,2.411,4.454,2.353
			C4.429,2.085,4.441,2.991,4.449,2.722z"/>
		<path fill="#FFFFFF" d="M6,2.478C5.545,2.481,5.403,2.524,5.391,2.659C5.385,2.718,5.376,2.776,5.395,2.833
			C5.449,3.005,5.59,3.099,6.193,3.149c0.036,0.004,0.072,0.006,0.106,0.01l2.926,0.002c0.12-0.016,0.25-0.023,0.366-0.039
			c0.266-0.037,0.479-0.09,0.545-0.178c0.1-0.127,0.093-0.256,0.032-0.387c-0.021-0.041-0.105-0.062-0.23-0.072
			c-0.08-0.006-0.165-0.008-0.248-0.008C9.083,2.474,8.478,2.476,7.872,2.476v0.002H7.201C6.8,2.478,6.4,2.474,6,2.478z"/>
	</g>
	<path fill="#FFFFFF" d="M9.349,8.524c0.112,0.271,0.199,0.555,0.31,0.826c0.254,0.633,0.521,0.805,1.195,0.801
		c0.217-0.002,0.437,0,0.653,0.025c0.333,0.041,0.354,0.201,0.421,0.561c0.014,0.074,0.044,0.148,0.048,0.225
		c0.029,0.652,0.024,1.281-0.015,1.93c-0.038,0.609-0.108,0.061-0.23,0.664c-0.335,1.652-0.586,2.664-0.539,4.355
		c0.042,1.574,0.117,1.451,0.085,3.029c-0.009,0.482-0.053,0.969-0.212,1.438c-0.221,0.66-0.456,0.973-1.119,1.021
		c-1.113,0.078-2.225,0.084-3.332-0.078c-0.15-0.021-0.298-0.068-0.442-0.123c-0.462-0.176-0.484-0.205-0.48-0.697
		c0.002-0.303-0.012-0.588-0.265-0.811c-0.066-0.057-0.092-0.178-0.106-0.275c-0.019-0.139-0.014-0.283-0.014-0.424
		c-0.001-2.592-0.001-2.83-0.001-5.422h0.013c0-2.672-0.001-4.164,0-6.834c0-0.385-0.183-0.652-0.504-0.848
		C4.191,7.511,3.57,7.124,2.949,6.739c-0.087-0.053-0.173-0.107-0.256-0.17C2.219,6.228,2.082,5.733,2.299,5.341
		C2.517,4.95,2.912,5.056,3.127,5.093c0.491,0.078,0.501,0.09,0.975,0.232C4.91,5.567,5.767,5.862,6.539,6.198
		c0.654,0.281,1.274,0.656,1.885,1.031C8.901,7.522,9.14,8.022,9.349,8.524z"/>
	<path fill="#FFFFFF" d="M10.423,27.991c-0.303,0.443-0.784,0.906-1.035,1.379c-0.28,0.529-0.247,1.113-0.264,1.711
		c-0.03,0.885-0.031,1.768-0.046,2.648c-0.017,1.014,0.006,0.85,0.027,1.863c0.022,1,0.09,0.822,0.09,1.82
		c0.001,0.822-0.625,1.416-1.511,1.502c-0.217,0.021-0.437,0.01-0.654,0.004c-0.247-0.008-0.439-0.133-0.595-0.312
		c-0.325-0.377-0.216-0.805,0.255-0.975c0.312-0.111,0.701,0.055,1.013-0.053c0.638-0.225,0.771-0.633,0.761-1.32
		c-0.022-1.359,0.017-1.541,0.015-2.9c0-0.613,0.024-0.049,0.07-0.664c0.033-0.459-0.019-2.557,0.164-3.104
		c0.261-0.771,0.741-1.244,0.739-1.244c1.012-1.133,1.071-2.471,0.884-3.938c-0.056-0.443,0.104-0.676,0.55-0.748
		c0.036-0.006,0.106,0.051,0.117,0.088c0.025,0.1,0.032,0.205,0.033,0.307c0.003,0.385,0.001,0.77,0.001,1.154h0.013
		c0,0.27-0.016,0.541,0.003,0.809C11.102,26.761,10.833,27.394,10.423,27.991z"/>
</g>
<path fill="#FFFFFF" d="M7.92,44.599c-0.09,0.867-0.171,1.736-0.255,2.602c-0.053,0.537-0.104,1.072-0.159,1.607
	c-0.003,0.031-0.013,0.062-0.02,0.094c-0.014-0.033-0.035-0.07-0.04-0.105c-0.041-0.291-0.083-0.582-0.114-0.875
	c-0.138-1.287-0.27-2.574-0.411-3.859c-0.088-0.805-0.187-1.605-0.28-2.408c-0.005-0.049-0.01-0.102-0.021-0.227
	c-0.023-0.137,0.059-0.158,0.25-0.107c0.425,0.117,0.858,0.15,1.279-0.037c0.121-0.053,0.125,0.021,0.116,0.107
	C8.152,42.46,8.032,43.528,7.92,44.599z"/>
<path d="M6.283,14.21c0.168,0.028,0.341,0.028,0.511,0.038c0.071,0.004,0.146-0.011,0.214,0.004
	c0.096,0.022,0.168,0.076,0.147,0.207c-0.057,0.357-0.119,5.521-0.167,5.88c-0.077,0.578-0.152,1.158-0.207,1.737
	c-0.025,0.269,0.114,0.511,0.51,0.481c0.231-0.016,0.462-0.031,0.693-0.045c0.231,0.014,0.462,0.029,0.693,0.045
	c0.397,0.029,0.536-0.213,0.511-0.481c-0.055-0.579-0.131-1.159-0.208-1.737c-0.046-0.359-0.109-5.522-0.166-5.88
	c-0.021-0.131,0.051-0.185,0.146-0.207c0.069-0.015,0.143,0,0.215-0.004c0.171-0.01,0.343-0.01,0.512-0.038
	c0.151-0.026,0.235-0.164,0.189-0.321c-0.068-0.234-0.158-0.463-0.25-0.688c-0.095-0.229-0.207-0.45-0.305-0.679
	c-0.085-0.194-0.153-0.398-0.246-0.589c-0.086-0.174-0.198-0.334-0.296-0.504c-0.143-0.244-0.279-0.493-0.426-0.734
	c-0.087-0.141-0.212-0.248-0.368-0.245c-0.156-0.003-0.281,0.104-0.368,0.245c-0.147,0.241-0.284,0.49-0.427,0.734
	c-0.098,0.17-0.209,0.33-0.295,0.504c-0.093,0.19-0.162,0.395-0.247,0.589C6.55,12.75,6.438,12.971,6.344,13.2
	c-0.093,0.226-0.183,0.454-0.252,0.688C6.047,14.046,6.131,14.184,6.283,14.21z"/>
<g>
	<g>
		<path fill="#6D6E71" d="M7.065,45.737l0.417,3.839l0.338-3.839c0,0-0.097,0.219-0.371,0.237
			C7.174,45.993,7.065,45.737,7.065,45.737z"/>
	</g>
</g>
<g>
	<path fill="none" d="M22.184,41.282c-0.421,0.188-0.854,0.154-1.279,0.037c-0.191-0.051-0.273-0.029-0.25,0.107
		c0.012,0.125,0.017,0.178,0.021,0.227c0.094,0.803,0.192,1.604,0.28,2.408c0.141,1.285,0.272,2.572,0.411,3.859
		c0.03,0.293,0.072,0.584,0.113,0.875c0.005,0.035,0.025,0.072,0.04,0.105c0.007-0.031,0.017-0.062,0.02-0.094
		c0.054-0.535,0.105-1.07,0.159-1.607c0.084-0.865,0.165-1.734,0.255-2.602c0.111-1.07,0.231-2.139,0.345-3.209
		C22.309,41.304,22.305,41.229,22.184,41.282z"/>
	<path fill="none" d="M22.457,7.229c-0.611-0.375-1.23-0.75-1.885-1.031c-0.771-0.336-1.629-0.631-2.436-0.873
		c-0.475-0.143-0.484-0.154-0.976-0.232c-0.216-0.037-0.61-0.143-0.829,0.248c-0.217,0.393-0.079,0.887,0.395,1.229
		c0.082,0.062,0.169,0.117,0.256,0.17c0.621,0.385,1.242,0.771,1.866,1.148c0.321,0.195,0.505,0.463,0.505,0.848
		c-0.002,2.67,0,4.162,0,6.834H19.34c0,2.592,0,2.83,0.001,5.422c0,0.141-0.005,0.285,0.014,0.424
		c0.015,0.098,0.04,0.219,0.106,0.275c0.253,0.223,0.268,0.508,0.266,0.811c-0.004,0.492,0.018,0.521,0.48,0.697
		c0.143,0.055,0.291,0.102,0.441,0.123c1.107,0.162,2.219,0.156,3.332,0.078c0.662-0.049,0.897-0.361,1.119-1.021
		c0.158-0.469,0.203-0.955,0.212-1.438c0.032-1.578-0.043-1.455-0.085-3.029c-0.048-1.691,0.203-2.703,0.539-4.355
		c0.121-0.604,0.191-0.055,0.229-0.664c0.039-0.648,0.044-1.277,0.015-1.93c-0.004-0.076-0.033-0.15-0.048-0.225
		c-0.067-0.359-0.088-0.52-0.421-0.561c-0.217-0.025-0.436-0.027-0.653-0.025c-0.675,0.004-0.941-0.168-1.195-0.801
		c-0.11-0.271-0.198-0.555-0.31-0.826C23.174,8.022,22.936,7.522,22.457,7.229z"/>
	<path fill="none" d="M25.072,25.21c0-0.385,0.001-0.77-0.002-1.154c-0.001-0.102-0.008-0.207-0.033-0.307
		c-0.011-0.037-0.082-0.094-0.117-0.088c-0.445,0.072-0.605,0.305-0.55,0.748c0.187,1.467,0.128,2.805-0.884,3.938
		c0.002,0-0.479,0.473-0.739,1.244c-0.183,0.547-0.131,2.645-0.163,3.104c-0.046,0.615-0.07,0.051-0.07,0.664
		c0.002,1.359-0.037,1.541-0.015,2.9c0.011,0.688-0.122,1.096-0.761,1.32c-0.312,0.107-0.701-0.059-1.014,0.053
		c-0.471,0.17-0.58,0.598-0.254,0.975c0.154,0.18,0.348,0.305,0.594,0.312c0.218,0.006,0.438,0.018,0.654-0.004
		c0.887-0.086,1.512-0.68,1.511-1.502c0-0.998-0.067-0.82-0.091-1.82c-0.021-1.014-0.044-0.85-0.027-1.863
		c0.016-0.881,0.017-1.764,0.047-2.648c0.017-0.598-0.018-1.182,0.264-1.711c0.251-0.473,0.732-0.936,1.035-1.379
		c0.409-0.598,0.679-1.23,0.631-1.973c-0.019-0.268-0.003-0.539-0.003-0.809H25.072z"/>
	<path d="M20.974,1.872c-0.552,0-1.103-0.012-1.653,0.004c-0.544,0.016-0.752,0.191-0.812,0.645c0.089,0.688,0.31,1.082,1.077,1.305
		c0.049,0.016,0.1,0.027,0.148,0.047c0.482,0.182,0.654,0.537,0.528,1.039c-0.037,0.148-0.089,0.197-0.23,0.141
		c-0.06-0.021-0.12-0.043-0.182-0.061c-0.739-0.197-1.473-0.436-2.224-0.576c-0.482-0.092-0.741-0.145-1.237-0.129
		c-0.282,0.012-0.739,0.281-0.871,0.541c-0.212,0.418-0.265,0.855-0.152,1.307c0.155,0.625,0.548,1.045,1.108,1.352
		c0.516,0.281,1.012,0.602,1.502,0.928c0.302,0.199,0.469,0.504,0.497,0.871c0.032,0.42,0.079,0.844,0.08,1.264
		c0.007,3.697,0.009,5.039,0.001,8.738c-0.003,1.178-0.039,1.18-0.066,2.359c-0.013,0.535,0.115,1.006,0.482,1.416
		c0.129,0.143,0.234,0.346,0.257,0.537c0.077,0.623,0.126,1.248,0.155,1.875c0.016,0.324,0.104,0.6,0.311,0.846
		c0.219,0.258,0.352,0.551,0.412,0.896c0.081,0.449,0.192,0.9,0.336,1.338c0.123,0.371,0.196,0.734,0.195,1.125
		c-0.005,2.953-0.009,3.553,0.004,6.504c0.002,0.482-0.089,0.887-0.403,1.275c-0.45,0.555-0.38,1.131,0.119,1.662
		c0.054,0.055,0.112,0.105,0.159,0.166c0.25,0.342,0.26,0.896-0.015,1.086c-0.279,0.189-0.314,0.418-0.275,0.729
		c0.144,1.117,0.272,2.236,0.388,3.355c0.142,1.352,0.257,2.703,0.4,4.055c0.053,0.482,0.152,0.961,0.236,1.439
		c0.027,0.15,0.077,0.33,0.271,0.316c0.162-0.01,0.268-0.137,0.298-0.309c0.023-0.123,0.057-0.25,0.069-0.377
		c0.085-0.762,0.171-1.525,0.249-2.291c0.1-0.992,0.188-1.988,0.289-2.98c0.106-1.047,0.209-2.092,0.34-3.133
		c0.035-0.27,0.023-0.477-0.207-0.643c-0.05-0.035-0.096-0.096-0.111-0.154c-0.119-0.482-0.148-1.074,0.391-1.402
		c0.4-0.24,0.643-0.629,0.688-1.105c0.049-0.533,0.1-1.072,0.1-1.609c0.004-1.113-0.029-1.053-0.039-2.166
		c-0.01-1.387,0.004-1.596-0.021-2.982c-0.017-0.945,0.325-1.725,0.97-2.387c0.504-0.52,0.854-1.123,0.977-1.84
		c0.072-0.416,0.121-0.836,0.141-1.26c0.022-0.459-0.026-0.924,0.005-1.385c0.024-0.324,0.071-0.672,0.206-0.965
		c0.41-0.881,0.5-1.785,0.346-2.738c-0.07-0.428-0.096-0.865-0.094-1.299c0.005-1.092,0.045-1.002,0.055-2.094
		c0.013-1.35,0.21-1.502,0.396-2.834c0.11-0.785,0.263-0.395,0.299-1.184c0.054-1.152,0.042-2.309-0.342-3.426
		c-0.181-0.523-0.159-1.016,0.337-1.381c0.021-0.016,0.036-0.037,0.053-0.057c0.15-0.195,0.128-0.365-0.092-0.473
		c-0.184-0.09-0.385-0.145-0.58-0.197c-0.666-0.172-1.348-0.139-2.025-0.145C23.746,7.45,23.534,7.3,23.49,6.841
		c-0.076-0.791-0.104-1.586-0.146-2.379c-0.015-0.295,0.148-0.48,0.412-0.584c0.166-0.064,0.342-0.109,0.505-0.182
		c0.364-0.168,0.66-0.42,0.751-0.822c0.135-0.594,0.125-0.02,0.041-0.619c-0.026-0.193-0.144-0.299-0.316-0.346
		C24.627,1.882,24.51,1.87,24.395,1.87c-0.833-0.004-1.666-0.002-2.498-0.002v0.004C21.59,1.872,21.281,1.87,20.974,1.872z
		 M21.954,44.599c-0.09,0.867-0.171,1.736-0.255,2.602c-0.054,0.537-0.105,1.072-0.159,1.607c-0.003,0.031-0.013,0.062-0.02,0.094
		c-0.015-0.033-0.035-0.07-0.04-0.105c-0.041-0.291-0.083-0.582-0.113-0.875c-0.139-1.287-0.271-2.574-0.411-3.859
		c-0.088-0.805-0.187-1.605-0.28-2.408c-0.005-0.049-0.01-0.102-0.021-0.227c-0.023-0.137,0.059-0.158,0.25-0.107
		c0.426,0.117,0.858,0.15,1.279-0.037c0.121-0.053,0.125,0.021,0.115,0.107C22.186,42.46,22.065,43.528,21.954,44.599z
		 M24.457,27.991c-0.303,0.443-0.784,0.906-1.035,1.379c-0.281,0.529-0.247,1.113-0.264,1.711c-0.03,0.885-0.031,1.768-0.047,2.648
		c-0.017,1.014,0.006,0.85,0.027,1.863c0.023,1,0.091,0.822,0.091,1.82c0.001,0.822-0.624,1.416-1.511,1.502
		c-0.217,0.021-0.437,0.01-0.654,0.004c-0.246-0.008-0.439-0.133-0.594-0.312c-0.326-0.377-0.217-0.805,0.254-0.975
		c0.312-0.111,0.701,0.055,1.014-0.053c0.639-0.225,0.771-0.633,0.761-1.32c-0.022-1.359,0.017-1.541,0.015-2.9
		c0-0.613,0.024-0.049,0.07-0.664c0.032-0.459-0.02-2.557,0.163-3.104c0.261-0.771,0.741-1.244,0.739-1.244
		c1.012-1.133,1.07-2.471,0.884-3.938c-0.056-0.443,0.104-0.676,0.55-0.748c0.035-0.006,0.106,0.051,0.117,0.088
		c0.025,0.1,0.032,0.205,0.033,0.307c0.003,0.385,0.002,0.77,0.002,1.154h0.013c0,0.27-0.016,0.541,0.003,0.809
		C25.136,26.761,24.866,27.394,24.457,27.991z M23.383,8.524c0.111,0.271,0.199,0.555,0.31,0.826
		c0.254,0.633,0.521,0.805,1.195,0.801c0.218-0.002,0.437,0,0.653,0.025c0.333,0.041,0.354,0.201,0.421,0.561
		c0.015,0.074,0.044,0.148,0.048,0.225c0.029,0.652,0.024,1.281-0.015,1.93c-0.038,0.609-0.108,0.061-0.229,0.664
		c-0.336,1.652-0.587,2.664-0.539,4.355c0.042,1.574,0.117,1.451,0.085,3.029c-0.009,0.482-0.054,0.969-0.212,1.438
		c-0.222,0.66-0.457,0.973-1.119,1.021c-1.113,0.078-2.225,0.084-3.332-0.078c-0.15-0.021-0.299-0.068-0.441-0.123
		c-0.463-0.176-0.484-0.205-0.48-0.697c0.002-0.303-0.013-0.588-0.266-0.811c-0.066-0.057-0.092-0.178-0.106-0.275
		c-0.019-0.139-0.014-0.283-0.014-0.424c-0.001-2.592-0.001-2.83-0.001-5.422h0.014c0-2.672-0.002-4.164,0-6.834
		c0-0.385-0.184-0.652-0.505-0.848c-0.624-0.377-1.245-0.764-1.866-1.148c-0.087-0.053-0.174-0.107-0.256-0.17
		c-0.474-0.342-0.611-0.836-0.395-1.229c0.219-0.391,0.613-0.285,0.829-0.248c0.491,0.078,0.501,0.09,0.976,0.232
		c0.807,0.242,1.664,0.537,2.436,0.873c0.654,0.281,1.273,0.656,1.885,1.031C22.936,7.522,23.174,8.022,23.383,8.524z M21.906,2.478
		V2.476c0.605,0,1.211-0.002,1.816,0.002c0.084,0,0.169,0.002,0.248,0.008c0.125,0.01,0.209,0.031,0.23,0.072
		c0.062,0.131,0.068,0.26-0.031,0.387c-0.066,0.088-0.279,0.141-0.545,0.178c-0.117,0.016-0.246,0.023-0.366,0.039l-2.926-0.002
		c-0.034-0.004-0.07-0.006-0.106-0.01c-0.603-0.051-0.744-0.145-0.799-0.316c-0.018-0.057-0.01-0.115-0.004-0.174
		c0.013-0.135,0.155-0.178,0.609-0.182c0.4-0.004,0.801,0,1.201,0H21.906z"/>
	<path d="M18.482,2.722c0.002-0.08,0.018-0.135,0.026-0.201c-0.007-0.055-0.016-0.109-0.021-0.168
		C18.463,2.085,18.475,2.991,18.482,2.722z"/>
	<path fill="#FFFFFF" d="M20.033,2.478c-0.454,0.004-0.597,0.047-0.609,0.182c-0.006,0.059-0.014,0.117,0.004,0.174
		c0.055,0.172,0.196,0.266,0.799,0.316c0.036,0.004,0.072,0.006,0.106,0.01l2.926,0.002c0.12-0.016,0.249-0.023,0.366-0.039
		c0.266-0.037,0.479-0.09,0.545-0.178c0.1-0.127,0.094-0.256,0.031-0.387c-0.021-0.041-0.105-0.062-0.23-0.072
		c-0.079-0.006-0.164-0.008-0.248-0.008c-0.605-0.004-1.211-0.002-1.816-0.002v0.002h-0.672C20.834,2.478,20.434,2.474,20.033,2.478
		z"/>
</g>
<path fill="#FFFFFF" d="M23.383,8.524c0.111,0.271,0.199,0.555,0.31,0.826c0.254,0.633,0.521,0.805,1.195,0.801
	c0.218-0.002,0.437,0,0.653,0.025c0.333,0.041,0.354,0.201,0.421,0.561c0.015,0.074,0.044,0.148,0.048,0.225
	c0.029,0.652,0.024,1.281-0.015,1.93c-0.038,0.609-0.108,0.061-0.229,0.664c-0.336,1.652-0.587,2.664-0.539,4.355
	c0.042,1.574,0.117,1.451,0.085,3.029c-0.009,0.482-0.054,0.969-0.212,1.438c-0.222,0.66-0.457,0.973-1.119,1.021
	c-1.113,0.078-2.225,0.084-3.332-0.078c-0.15-0.021-0.299-0.068-0.441-0.123c-0.463-0.176-0.484-0.205-0.48-0.697
	c0.002-0.303-0.013-0.588-0.266-0.811c-0.066-0.057-0.092-0.178-0.106-0.275c-0.019-0.139-0.014-0.283-0.014-0.424
	c-0.001-2.592-0.001-2.83-0.001-5.422h0.014c0-2.672-0.002-4.164,0-6.834c0-0.385-0.184-0.652-0.505-0.848
	c-0.624-0.377-1.245-0.764-1.866-1.148c-0.087-0.053-0.174-0.107-0.256-0.17c-0.474-0.342-0.611-0.836-0.395-1.229
	c0.219-0.391,0.613-0.285,0.829-0.248c0.491,0.078,0.501,0.09,0.976,0.232c0.807,0.242,1.664,0.537,2.436,0.873
	c0.654,0.281,1.273,0.656,1.885,1.031C22.936,7.522,23.174,8.022,23.383,8.524z"/>
<path fill="#FFFFFF" d="M24.457,27.991c-0.303,0.443-0.784,0.906-1.035,1.379c-0.281,0.529-0.247,1.113-0.264,1.711
	c-0.03,0.885-0.031,1.768-0.047,2.648c-0.017,1.014,0.006,0.85,0.027,1.863c0.023,1,0.091,0.822,0.091,1.82
	c0.001,0.822-0.624,1.416-1.511,1.502c-0.217,0.021-0.437,0.01-0.654,0.004c-0.246-0.008-0.439-0.133-0.594-0.312
	c-0.326-0.377-0.217-0.805,0.254-0.975c0.312-0.111,0.701,0.055,1.014-0.053c0.639-0.225,0.771-0.633,0.761-1.32
	c-0.022-1.359,0.017-1.541,0.015-2.9c0-0.613,0.024-0.049,0.07-0.664c0.032-0.459-0.02-2.557,0.163-3.104
	c0.261-0.771,0.741-1.244,0.739-1.244c1.012-1.133,1.07-2.471,0.884-3.938c-0.056-0.443,0.104-0.676,0.55-0.748
	c0.035-0.006,0.106,0.051,0.117,0.088c0.025,0.1,0.032,0.205,0.033,0.307c0.003,0.385,0.002,0.77,0.002,1.154h0.013
	c0,0.27-0.016,0.541,0.003,0.809C25.136,26.761,24.866,27.394,24.457,27.991z"/>
<path fill="#FFFFFF" d="M21.954,44.599c-0.09,0.867-0.171,1.736-0.255,2.602c-0.054,0.537-0.105,1.072-0.159,1.607
	c-0.003,0.031-0.013,0.062-0.02,0.094c-0.015-0.033-0.035-0.07-0.04-0.105c-0.041-0.291-0.083-0.582-0.113-0.875
	c-0.139-1.287-0.271-2.574-0.411-3.859c-0.088-0.805-0.187-1.605-0.28-2.408c-0.005-0.049-0.01-0.102-0.021-0.227
	c-0.023-0.137,0.059-0.158,0.25-0.107c0.426,0.117,0.858,0.15,1.279-0.037c0.121-0.053,0.125,0.021,0.115,0.107
	C22.186,42.46,22.065,43.528,21.954,44.599z"/>
<path d="M23.722,18.798c-0.168-0.028-0.341-0.028-0.511-0.038c-0.072-0.004-0.146,0.011-0.215-0.004
	c-0.096-0.022-0.168-0.076-0.146-0.207c0.057-0.357,0.119-5.521,0.166-5.88c0.076-0.578,0.152-1.158,0.207-1.737
	c0.025-0.269-0.113-0.511-0.51-0.481c-0.231,0.016-0.463,0.031-0.693,0.045c-0.231-0.014-0.463-0.029-0.693-0.045
	c-0.397-0.029-0.536,0.213-0.512,0.481c0.055,0.579,0.132,1.159,0.209,1.737c0.046,0.359,0.108,5.522,0.165,5.88
	c0.021,0.131-0.052,0.185-0.146,0.207c-0.07,0.015-0.144,0-0.215,0.004c-0.172,0.01-0.344,0.01-0.512,0.038
	c-0.152,0.026-0.236,0.164-0.189,0.321c0.068,0.234,0.158,0.463,0.25,0.688c0.096,0.229,0.207,0.45,0.306,0.679
	c0.085,0.194,0.153,0.398,0.246,0.589c0.087,0.174,0.198,0.334,0.296,0.504c0.143,0.244,0.279,0.493,0.426,0.734
	c0.088,0.141,0.213,0.248,0.369,0.245c0.156,0.003,0.281-0.104,0.367-0.245c0.147-0.241,0.284-0.49,0.428-0.734
	c0.098-0.17,0.209-0.33,0.295-0.504c0.093-0.19,0.162-0.395,0.246-0.589c0.1-0.229,0.211-0.449,0.305-0.679
	c0.094-0.226,0.184-0.454,0.252-0.688C23.957,18.962,23.873,18.824,23.722,18.798z"/>
<g>
	<g>
		<path fill="#6D6E71" d="M21.1,45.737l0.416,3.839l0.338-3.839c0,0-0.097,0.219-0.37,0.237C21.207,45.993,21.1,45.737,21.1,45.737z
			"/>
	</g>
</g>
<g id="dNl5BF_1_" opacity="0.8">
	<g>
		<g>
			<path fill="none" d="M20.819,52.104c0.004,0.045,0.006,0.09,0.015,0.131c0.051,0.232,0.188,0.391,0.402,0.48
				c0.173,0.07,0.35,0.068,0.516-0.014c0.225-0.111,0.357-0.291,0.379-0.543c0.016-0.164-0.026-0.311-0.125-0.443
				c-0.101-0.133-0.195-0.27-0.281-0.41c-0.098-0.166-0.186-0.336-0.228-0.527c-0.005-0.021-0.021-0.031-0.039-0.031
				s-0.034,0.012-0.038,0.033c-0.008,0.029-0.017,0.059-0.025,0.092c-0.053,0.174-0.132,0.336-0.225,0.492
				c-0.069,0.117-0.139,0.234-0.218,0.348C20.867,51.831,20.822,51.96,20.819,52.104z"/>
		</g>
		<g>
			<path fill-rule="evenodd" clip-rule="evenodd" d="M20.819,52.104c0.003-0.145,0.048-0.273,0.133-0.393
				c0.079-0.113,0.148-0.23,0.218-0.348c0.093-0.156,0.172-0.318,0.225-0.492c0.009-0.033,0.018-0.062,0.025-0.092
				c0.004-0.021,0.02-0.033,0.038-0.033s0.034,0.01,0.039,0.031c0.042,0.191,0.13,0.361,0.228,0.527
				c0.086,0.141,0.181,0.277,0.281,0.41c0.099,0.133,0.141,0.279,0.125,0.443c-0.021,0.252-0.154,0.432-0.379,0.543
				c-0.166,0.082-0.343,0.084-0.516,0.014c-0.215-0.09-0.352-0.248-0.402-0.48C20.825,52.194,20.823,52.149,20.819,52.104z"/>
		</g>
	</g>
</g>
</svg>
