<?xml version="1.0" encoding="utf-8"?>
<!-- Generator: Adobe Illustrator 16.0.0, SVG Export Plug-In . SVG Version: 6.00 Build 0)  -->
<!DOCTYPE svg PUBLIC "-//W3C//DTD SVG 1.1//EN" "http://www.w3.org/Graphics/SVG/1.1/DTD/svg11.dtd">
<svg version="1.1" id="Layer_1" xmlns="http://www.w3.org/2000/svg" xmlns:xlink="http://www.w3.org/1999/xlink" x="0px" y="0px"
	 width="90.667px" height="188.499px" viewBox="0 0 90.667 188.499" enable-background="new 0 0 90.667 188.499"
	 xml:space="preserve">
<path fill-rule="evenodd" clip-rule="evenodd" fill="#FFFFFF" stroke="#000000" stroke-miterlimit="10" d="M-75.632,140.092
	c-0.062-6.234-0.004-12.468-0.046-18.702c-0.02-3.046,0.738-3.722-4.39-3.722c-5.178,0-4.371,0.675-4.391,3.722
	c-0.031,4.53,0.035,10.763-0.044,18.702c-0.029,2.908,0.017,5.861,0.194,8.765c0.092,1.499,2.24,8.661,4.241,8.575
	c1.634,0.068,3.918-6.205,4.12-7.463C-75.439,146.797-75.601,143.299-75.632,140.092C-75.647,138.555-75.617,141.6-75.632,140.092z"
	/>
<g>
	<g>
		<path fill="#FFFFFF" d="M159.25,39.345h-23.904h-23.908l0.461,72.125c0.056,10.23,5.749,41.296,11.642,61.883
			c2.551,9.342,5.162,16.528,7.374,18.567c1.179,1.096,2.812,1.617,4.432,1.577c1.62,0.04,3.291-0.481,4.438-1.577
			c2.227-2.039,4.808-9.226,7.379-18.567c5.878-20.587,11.591-51.653,11.646-61.883L159.25,39.345z"/>
	</g>
	<g>
		<path fill="#010101" d="M135.467,195.263L135.467,195.263c-0.046,0-0.073,0-0.122,0c-0.03,0-0.078,0-0.108,0
			c-2.11,0-4.142-0.756-5.511-2.054c-2.325-2.181-4.889-8.495-7.881-19.378c-5.71-20.09-11.635-51.569-11.695-62.361l-0.475-73.866
			h51.333l-0.453,73.866c-0.059,10.792-5.981,42.271-11.694,62.361c-2.987,10.883-5.543,17.207-7.868,19.378
			C139.585,194.507,137.582,195.263,135.467,195.263z M135.345,191.769h0.122c1.234,0,2.358-0.396,3.111-1.11h0.027
			c0.812-0.766,3.104-4.032,6.882-17.756v-0.035c2.738-9.6,5.64-22.251,7.965-34.671c2.241-11.962,3.575-21.946,3.598-26.726
			l0.454-70.387h-44.293l0.416,70.387c0.035,4.78,1.395,14.764,3.631,26.726c2.293,12.419,5.209,25.071,7.973,34.671v0.035
			c3.74,13.724,6.04,16.99,6.866,17.756h0.033c0.71,0.715,1.889,1.11,3.106,1.11H135.345z"/>
	</g>
</g>
<g>
	<g>
		<path fill="#11121B" d="M176.984,27.8c-0.929-2.197-2.863-3.865-5.795-3.846l-6.08,0.052c-0.862,0-1.603,1.075-1.572,2.392
			c0,1.329,0.735,2.301,1.601,2.292l6.09-0.06c1.626,0,2.557,0.689,2.922,1.584c0.076,0.25,0.132,0.519,0.132,0.796
			c0,0.176-0.056,0.435-0.132,0.7c-0.34,0.894-1.296,1.604-2.906,1.604l-7.878,0.089c-0.853,0-1.608,1.071-1.608,2.292
			c0.038,1.33,0.756,2.393,1.628,2.365l7.894-0.032c2.898-0.04,4.826-1.75,5.726-3.972c0.381-0.956,0.619-2.011,0.608-3.081
			C177.612,29.835,177.361,28.769,176.984,27.8z"/>
	</g>
</g>
<g>
	<g>
		<path fill="none" stroke="#000000" stroke-width="0.1417" d="M119.974,14.645"/>
	</g>
</g>
<g>
	<g>
		<path fill="none" stroke="#000000" stroke-width="0.1417" d="M119.974,9.856"/>
	</g>
</g>
<g>
	<g>
		<rect x="109.202" y="31.863" fill="#FFFFFF" width="52.022" height="7.581"/>
	</g>
	<g>
		<path fill="#010101" d="M162.966,41.208h-55.538v-11.1h55.538V41.208z M110.931,37.699h48.562v-4.083h-48.562V37.699z"/>
	</g>
</g>
<g>
	<g>
		<rect x="104.767" y="21.873" fill="#FFFFFF" width="59.252" height="8.343"/>
	</g>
	<g>
		<path fill="#010101" d="M164.019,31.961h-59.252c-0.946,0-1.726-0.772-1.726-1.745v-8.343c0-0.956,0.779-1.752,1.726-1.752h59.252
			c0.938,0,1.731,0.796,1.731,1.752v8.343C165.75,31.189,164.957,31.961,164.019,31.961z M106.546,28.462h55.705v-4.834h-55.705
			V28.462z"/>
	</g>
</g>
<g>
	<g>
		<rect x="111.883" y="51.621" fill="#010101" width="13.682" height="0.345"/>
	</g>
</g>
<g>
	<g>
		<rect x="111.883" y="70.584" fill="#010101" width="13.682" height="0.346"/>
	</g>
</g>
<g>
	<g>
		<rect x="111.883" y="89.521" fill="#010101" width="13.682" height="0.355"/>
	</g>
</g>
<g>
	<g>
		<rect x="111.883" y="108.464" fill="#010101" width="13.682" height="0.364"/>
	</g>
</g>
<path fill="#FFFFFF" stroke="#000000" stroke-width="5.6693" stroke-miterlimit="10" d="M169.392,108.799
	c0,18.806-15.247,34.04-34.052,34.04c-18.797,0-34.042-15.234-34.042-34.04c0-18.793,15.245-34.046,34.042-34.046
	C154.145,74.753,169.392,90.006,169.392,108.799z"/>
<path fill-rule="evenodd" clip-rule="evenodd" fill="none" stroke="#000000" stroke-miterlimit="10" d="M-75.632,140.092
	c-0.062-6.234-0.004-12.468-0.046-18.702c-0.02-3.046,0.738-3.722-4.39-3.722c-5.178,0-4.371,0.675-4.391,3.722
	c-0.031,4.53,0.035,10.763-0.044,18.702c-0.029,2.908,0.017,5.861,0.194,8.765c0.092,1.499,2.24,8.661,4.241,8.575
	c1.634,0.068,3.918-6.205,4.12-7.463C-75.439,146.797-75.601,143.299-75.632,140.092C-75.647,138.555-75.617,141.6-75.632,140.092z"
	/>
<g>
	<g>
		<path fill="#FFFFFF" d="M-75.386,117.748c0-0.571-0.012-1.14,0.004-1.71c0.012-0.394-0.137-0.697-0.471-0.87
			c-0.352-0.181-0.721-0.352-1.102-0.443c-1.88-0.451-3.782-0.46-5.681-0.164c-0.611,0.096-1.212,0.315-1.792,0.542
			c-0.396,0.154-0.586,0.494-0.578,0.957c0.021,1.13,0.016,2.261,0.002,3.39c-0.004,0.368,0.118,0.677,0.434,0.825
			c0.473,0.223,0.965,0.443,1.473,0.55c1.728,0.362,3.476,0.364,5.215,0.107c0.66-0.098,1.308-0.336,1.938-0.571
			c0.391-0.146,0.579-0.488,0.563-0.934C-75.4,118.868-75.386,118.308-75.386,117.748z"/>
		<path fill="#FFFFFF" d="M-75.386,117.748c0,0.56-0.014,1.121,0.004,1.68c0.016,0.446-0.172,0.788-0.563,0.934
			c-0.63,0.235-1.277,0.473-1.938,0.571c-1.739,0.257-3.487,0.255-5.215-0.107c-0.508-0.107-1-0.328-1.473-0.55
			c-0.316-0.148-0.438-0.457-0.434-0.825c0.014-1.129,0.019-2.26-0.002-3.39c-0.008-0.463,0.182-0.803,0.578-0.957
			c0.581-0.227,1.181-0.445,1.792-0.542c1.899-0.296,3.801-0.287,5.681,0.164c0.381,0.091,0.75,0.262,1.102,0.443
			c0.334,0.173,0.483,0.476,0.471,0.87C-75.398,116.607-75.386,117.177-75.386,117.748z M-76.178,116.884
			c-2.712,0.726-5.33,0.729-7.982,0.009c0,0.612,0,1.219,0,1.825c0,0.979-0.002,0.987,0.955,1.215
			c1.604,0.381,3.233,0.407,4.856,0.197c0.683-0.089,1.345-0.335,2.013-0.526c0.068-0.02,0.15-0.148,0.151-0.228
			C-76.174,118.551-76.178,117.724-76.178,116.884z M-84.052,115.842c1.249,0.979,6.685,0.934,7.816-0.028
			C-78.898,115.015-81.475,115.004-84.052,115.842z"/>
		<path fill="#FFFFFF" d="M-76.178,116.884c0,0.84,0.004,1.667-0.006,2.492c-0.001,0.08-0.083,0.208-0.151,0.228
			c-0.668,0.191-1.331,0.437-2.013,0.526c-1.624,0.21-3.252,0.184-4.856-0.197c-0.957-0.228-0.955-0.236-0.955-1.215
			c0-0.606,0-1.213,0-1.825C-81.508,117.612-78.891,117.61-76.178,116.884z"/>
		<path fill="#FFFFFF" d="M-84.052,115.842c2.578-0.837,5.154-0.827,7.816-0.028C-77.367,116.775-82.804,116.821-84.052,115.842z"/>
	</g>
	<g>
		<path fill="none" d="M-74.476,117.404c0-0.667-0.015-1.333,0.006-1.998c0.012-0.459-0.162-0.814-0.552-1.016
			c-0.411-0.211-0.842-0.411-1.287-0.517c-2.196-0.527-4.418-0.538-6.637-0.191c-0.714,0.111-1.416,0.368-2.094,0.631
			c-0.463,0.181-0.684,0.578-0.675,1.119c0.025,1.319,0.018,2.641,0.002,3.961c-0.003,0.43,0.137,0.79,0.508,0.964
			c0.553,0.26,1.127,0.518,1.719,0.642c2.019,0.424,4.062,0.425,6.093,0.126c0.772-0.114,1.527-0.393,2.263-0.667
			c0.456-0.17,0.676-0.57,0.659-1.09C-74.493,118.712-74.476,118.057-74.476,117.404z"/>
		<path fill-rule="evenodd" clip-rule="evenodd" d="M-74.476,117.404c0,0.653-0.017,1.309,0.006,1.962
			c0.017,0.521-0.204,0.92-0.659,1.09c-0.736,0.274-1.491,0.553-2.263,0.667c-2.031,0.299-4.074,0.298-6.093-0.126
			c-0.592-0.124-1.166-0.382-1.719-0.642c-0.371-0.174-0.511-0.534-0.508-0.964c0.016-1.32,0.023-2.642-0.002-3.961
			c-0.009-0.541,0.212-0.938,0.675-1.119c0.679-0.264,1.38-0.52,2.094-0.631c2.218-0.347,4.441-0.336,6.637,0.191
			c0.445,0.106,0.876,0.306,1.287,0.517c0.39,0.201,0.564,0.557,0.552,1.016C-74.491,116.071-74.476,116.737-74.476,117.404z
			 M-75.402,116.395c-3.169,0.848-6.226,0.851-9.325,0.01c0,0.715,0,1.423,0,2.132c0,1.142-0.001,1.153,1.117,1.419
			c1.874,0.445,3.775,0.476,5.671,0.23c0.797-0.103,1.571-0.391,2.352-0.614c0.081-0.023,0.175-0.173,0.176-0.266
			C-75.398,118.341-75.402,117.376-75.402,116.395z M-84.602,115.177c1.459,1.145,7.811,1.091,9.131-0.033
			C-78.58,114.212-81.591,114.199-84.602,115.177z"/>
		<path fill-rule="evenodd" clip-rule="evenodd" fill="none" d="M-75.402,116.395c0,0.981,0.004,1.946-0.009,2.912
			c-0.001,0.093-0.095,0.242-0.176,0.266c-0.78,0.223-1.555,0.511-2.352,0.614c-1.896,0.246-3.798,0.215-5.671-0.23
			c-1.119-0.266-1.117-0.277-1.117-1.419c0-0.709,0-1.417,0-2.132C-81.627,117.246-78.571,117.243-75.402,116.395z"/>
		<path fill-rule="evenodd" clip-rule="evenodd" fill="none" d="M-84.602,115.177c3.011-0.978,6.022-0.965,9.131-0.033
			C-76.791,116.268-83.142,116.321-84.602,115.177z"/>
	</g>
</g>
<line fill="#FFFFFF" stroke="#000000" stroke-width="0.2835" stroke-miterlimit="10" x1="-75.905" y1="116.48" x2="-75.905" y2="120.554"/>
<line fill="#FFFFFF" stroke="#000000" stroke-width="0.2835" stroke-miterlimit="10" x1="-76.655" y1="116.48" x2="-76.655" y2="120.554"/>
<line fill="#FFFFFF" stroke="#000000" stroke-width="0.2835" stroke-miterlimit="10" x1="-77.406" y1="116.48" x2="-77.406" y2="120.554"/>
<line fill="#FFFFFF" stroke="#000000" stroke-width="0.2835" stroke-miterlimit="10" x1="-82.659" y1="116.48" x2="-82.659" y2="120.556"/>
<line fill="#FFFFFF" stroke="#000000" stroke-width="0.2835" stroke-miterlimit="10" x1="-83.41" y1="116.48" x2="-83.41" y2="120.556"/>
<line fill="#FFFFFF" stroke="#000000" stroke-width="0.2835" stroke-miterlimit="10" x1="-84.16" y1="116.48" x2="-84.16" y2="120.555"/>
<path fill="none" stroke="#000000" stroke-width="0.1417" stroke-miterlimit="10" d="M-84.612,122.906c0,0,1.238,0.688,3.195,0.688"
	/>
<path fill="none" stroke="#000000" stroke-width="0.1417" stroke-miterlimit="10" d="M-84.612,127.44c0,0,1.238,0.688,3.195,0.688"
	/>
<path fill="none" stroke="#000000" stroke-width="0.1417" stroke-miterlimit="10" d="M-84.612,141.043c0,0,1.238,0.688,3.195,0.688"
	/>
<path fill="none" stroke="#000000" stroke-width="0.1417" stroke-miterlimit="10" d="M-84.612,145.578c0,0,1.238,0.688,3.195,0.688"
	/>
<path fill="none" stroke="#000000" stroke-width="0.1417" stroke-miterlimit="10" d="M-84.612,136.51c0,0,1.238,0.688,3.195,0.688"
	/>
<path fill="none" stroke="#000000" stroke-width="0.1417" stroke-miterlimit="10" d="M-84.612,131.977c0,0,1.238,0.688,3.195,0.688"
	/>
<circle fill="#FFFFFF" stroke="#000000" stroke-width="1.4173" stroke-miterlimit="10" cx="-80.092" cy="132.932" r="6.747"/>
<g>
	<path fill="#FFFFFF" d="M-43.584,52.134c0,15.37-12.46,27.823-27.83,27.823c-15.364,0-27.823-12.453-27.823-27.823
		c0-15.358,12.459-27.824,27.823-27.824C-56.044,24.31-43.584,36.776-43.584,52.134z"/>
	<path d="M-71.414,82.88c-16.954,0-30.745-13.793-30.745-30.746c0-16.954,13.791-30.747,30.745-30.747
		c16.957,0,30.752,13.793,30.752,30.747C-40.662,69.086-54.457,82.88-71.414,82.88z M-71.414,27.231
		c-13.729,0-24.899,11.171-24.899,24.902c0,13.73,11.171,24.901,24.899,24.901c13.734,0,24.907-11.171,24.907-24.901
		C-46.507,38.402-57.68,27.231-71.414,27.231z"/>
</g>
<g>
	<path fill-rule="evenodd" clip-rule="evenodd" fill="#FFFFFF" d="M64.145,112.411c-0.256-25.713-0.019-51.423-0.188-77.136
		c-0.082-12.564,3.045-15.35-18.105-15.35c-21.357,0-18.026,2.783-18.111,15.35c-0.129,18.685,0.145,44.391-0.181,77.136
		c-0.119,11.995,0.067,24.175,0.801,36.152c0.381,6.178,9.239,35.718,17.491,35.364c6.738,0.282,16.162-25.593,16.992-30.78
		C64.941,140.064,64.274,125.638,64.145,112.411C64.082,106.071,64.207,118.63,64.145,112.411z"/>
	<path d="M45.705,185.993c-10.628,0-19.094-32.299-19.402-37.305c-0.675-11.02-0.939-22.895-0.806-36.296
		c0.198-19.896,0.175-36.897,0.155-51.895c-0.012-9.493-0.024-17.905,0.025-25.236c0.01-1.625-0.035-3.084-0.078-4.392
		c-0.139-4.293-0.24-7.395,1.979-9.686c2.432-2.512,6.873-3.319,18.273-3.319c11.328,0,15.75,0.809,18.199,3.329
		c2.25,2.314,2.159,5.474,2.035,9.848c-0.037,1.265-0.077,2.666-0.067,4.22c0.079,11.657,0.071,23.312,0.064,34.968
		c-0.008,14.053-0.015,28.108,0.126,42.164l0.088,6.376c0.186,11.565,0.376,23.524-1.418,34.705
		c-0.578,3.622-9.779,32.516-18.916,32.521h-0.003l-0.255-2.062l0.059-2.067c4.607,0.004,13.998-22.511,15.043-29.044
		c1.736-10.822,1.549-22.6,1.365-33.986l-0.08-5.581c-0.025-0.723-0.025-1.607-0.025-2.685v-0.163
		c-0.122-13.395-0.113-26.787-0.107-40.179c0.006-11.646,0.014-23.291-0.064-34.938c-0.01-1.609,0.03-3.059,0.068-4.368
		c0.109-3.805,0.119-5.838-0.871-6.855c-1.773-1.826-8.373-2.078-15.24-2.078c-6.914,0-13.554,0.25-15.309,2.064
		c-0.959,0.988-0.941,2.972-0.82,6.682c0.041,1.358,0.092,2.87,0.08,4.556c-0.05,7.322-0.039,15.722-0.026,25.202
		c0.021,15.01,0.043,32.023-0.155,51.941c-0.131,13.304,0.129,25.083,0.798,36.006c0.463,7.521,9.565,33.431,15.286,33.431V185.993z
		"/>
</g>
<g>
	<path d="M45.705,185.993c-10.628,0-19.094-32.299-19.402-37.305c-0.675-11.02-0.939-22.895-0.806-36.296
		c0.198-19.896,0.175-36.897,0.155-51.895c-0.012-9.493-0.024-17.905,0.025-25.236c0.01-1.625-0.035-3.084-0.078-4.392
		c-0.139-4.293-0.24-7.395,1.979-9.686c2.432-2.512,6.873-3.319,18.273-3.319c11.328,0,15.75,0.809,18.199,3.329
		c2.25,2.314,2.159,5.474,2.035,9.848c-0.037,1.265-0.077,2.666-0.067,4.22c0.079,11.657,0.071,23.312,0.064,34.968
		c-0.008,14.053-0.015,28.108,0.126,42.164l0.088,6.376c0.186,11.565,0.376,23.524-1.418,34.705
		c-0.578,3.622-9.779,32.516-18.916,32.521h-0.003l-0.255-2.062l0.059-2.067c4.607,0.004,13.998-22.511,15.043-29.044
		c1.736-10.822,1.549-22.6,1.365-33.986l-0.08-5.581c-0.025-0.723-0.025-1.607-0.025-2.685v-0.163
		c-0.122-13.395-0.113-26.787-0.107-40.179c0.006-11.646,0.014-23.291-0.064-34.938c-0.01-1.609,0.03-3.059,0.068-4.368
		c0.109-3.805,0.119-5.838-0.871-6.855c-1.773-1.826-8.373-2.078-15.24-2.078c-6.914,0-13.554,0.25-15.309,2.064
		c-0.959,0.988-0.941,2.972-0.82,6.682c0.041,1.358,0.092,2.87,0.08,4.556c-0.05,7.322-0.039,15.722-0.026,25.202
		c0.021,15.01,0.043,32.023-0.155,51.941c-0.131,13.304,0.129,25.083,0.798,36.006c0.463,7.521,9.565,33.431,15.286,33.431V185.993z
		"/>
</g>
<g>
	<g>
		<g>
			<g>
				<path fill="#FFFFFF" d="M66.706,20.343c0-2.545-0.055-5.086,0.021-7.628c0.053-1.756-0.611-3.108-2.104-3.879
					c-1.568-0.807-3.218-1.569-4.917-1.977C51.319,4.847,42.832,4.807,34.36,6.127c-2.728,0.429-5.408,1.405-7.998,2.416
					c-1.767,0.687-2.615,2.205-2.577,4.27c0.092,5.042,0.07,10.088,0.009,15.125c-0.02,1.643,0.525,3.02,1.937,3.682
					c2.111,0.992,4.307,1.978,6.57,2.455c7.708,1.617,15.507,1.624,23.267,0.477c2.946-0.435,5.834-1.499,8.644-2.547
					c1.746-0.648,2.584-2.175,2.516-4.165C66.642,25.343,66.706,22.842,66.706,20.343z"/>
			</g>
			<g>
				<path fill="#FFFFFF" d="M66.706,20.343c0,2.499-0.063,5,0.021,7.497c0.068,1.99-0.77,3.517-2.516,4.165
					c-2.81,1.048-5.697,2.112-8.644,2.547c-7.76,1.146-15.559,1.14-23.267-0.477c-2.264-0.477-4.459-1.463-6.57-2.455
					c-1.411-0.662-1.956-2.039-1.937-3.682c0.062-5.037,0.083-10.084-0.009-15.125c-0.038-2.065,0.811-3.583,2.577-4.27
					c2.59-1.011,5.271-1.987,7.998-2.416c8.472-1.32,16.959-1.28,25.346,0.732c1.699,0.408,3.349,1.17,4.917,1.977
					c1.492,0.771,2.156,2.124,2.104,3.879C66.651,15.257,66.706,17.798,66.706,20.343z M63.17,16.49
					c-12.103,3.239-23.779,3.25-35.612,0.04c0,2.729,0,5.437,0,8.142c0,4.366-0.009,4.405,4.259,5.421
					c7.155,1.701,14.424,1.816,21.667,0.88c3.046-0.397,5.999-1.494,8.982-2.347c0.304-0.087,0.671-0.662,0.675-1.017
					C63.186,23.927,63.17,20.237,63.17,16.49z M28.04,11.842c5.571,4.367,29.825,4.165,34.87-0.127
					C51.035,8.153,39.539,8.105,28.04,11.842z"/>
			</g>
			<g>
				<path fill="#FFFFFF" d="M63.17,16.49c0,3.747,0.016,7.437-0.029,11.119c-0.004,0.355-0.371,0.93-0.675,1.017
					c-2.983,0.853-5.937,1.95-8.982,2.347c-7.243,0.937-14.512,0.821-21.667-0.88c-4.268-1.016-4.259-1.055-4.259-5.421
					c0-2.705,0-5.413,0-8.142C39.391,19.741,51.068,19.729,63.17,16.49z"/>
			</g>
			<g>
				<path fill="#FFFFFF" d="M28.04,11.842c11.499-3.736,22.995-3.688,34.87-0.127C57.865,16.007,33.611,16.209,28.04,11.842z"/>
			</g>
		</g>
		<g>
			<g>
				<path fill="none" d="M70.764,18.811c0-2.977-0.067-5.948,0.025-8.916c0.056-2.048-0.724-3.633-2.46-4.531
					c-1.835-0.94-3.757-1.831-5.744-2.306c-9.797-2.353-19.712-2.401-29.608-0.854c-3.188,0.497-6.316,1.64-9.345,2.816
					c-2.065,0.809-3.052,2.58-3.011,4.991c0.112,5.886,0.081,11.784,0.008,17.672c-0.014,1.917,0.613,3.523,2.267,4.301
					c2.469,1.159,5.028,2.309,7.671,2.862c9.009,1.891,18.122,1.895,27.184,0.561c3.448-0.509,6.816-1.753,10.1-2.978
					c2.031-0.76,3.014-2.541,2.939-4.863C70.69,24.648,70.764,21.726,70.764,18.811z"/>
			</g>
			<g>
				<path fill-rule="evenodd" clip-rule="evenodd" d="M70.764,18.811c0,2.915-0.074,5.837,0.025,8.755
					c0.074,2.322-0.908,4.104-2.939,4.863c-3.283,1.225-6.651,2.469-10.1,2.978c-9.062,1.334-18.175,1.33-27.184-0.561
					c-2.643-0.554-5.202-1.704-7.671-2.862c-1.653-0.778-2.28-2.384-2.267-4.301c0.073-5.889,0.104-11.786-0.008-17.672
					C20.581,7.6,21.567,5.829,23.632,5.02c3.028-1.176,6.156-2.32,9.345-2.816c9.896-1.546,19.812-1.499,29.608,0.854
					c1.987,0.475,3.909,1.366,5.744,2.306c1.736,0.898,2.516,2.483,2.46,4.531C70.697,12.863,70.764,15.834,70.764,18.811z
					 M66.634,14.308c-14.139,3.784-27.777,3.797-41.605,0.045c0,3.19,0,6.351,0,9.513c0,5.096-0.006,5.146,4.984,6.332
					c8.358,1.986,16.842,2.122,25.303,1.026c3.556-0.46,7.011-1.745,10.492-2.738c0.36-0.105,0.782-0.771,0.786-1.186
					C66.651,22.991,66.634,18.687,66.634,14.308z M25.589,8.875c6.511,5.106,34.85,4.866,40.736-0.148
					C52.456,4.57,39.022,4.51,25.589,8.875z"/>
			</g>
			<g>
				<path fill-rule="evenodd" clip-rule="evenodd" fill="none" d="M66.634,14.308c0,4.379,0.017,8.683-0.04,12.992
					c-0.004,0.414-0.426,1.081-0.786,1.186c-3.481,0.994-6.937,2.278-10.492,2.738c-8.461,1.096-16.944,0.96-25.303-1.026
					c-4.99-1.186-4.984-1.236-4.984-6.332c0-3.162,0-6.323,0-9.513C38.857,18.104,52.496,18.091,66.634,14.308z"/>
			</g>
			<g>
				<path fill-rule="evenodd" clip-rule="evenodd" fill="none" d="M25.589,8.875C39.022,4.51,52.456,4.57,66.326,8.726
					C60.439,13.741,32.1,13.98,25.589,8.875z"/>
			</g>
		</g>
	</g>
	<g>
		<line fill="#FFFFFF" x1="64.39" y1="14.688" x2="64.39" y2="32.865"/>
		<rect x="63.757" y="14.688" width="1.263" height="18.177"/>
	</g>
	<g>
		<line fill="#FFFFFF" x1="61.041" y1="14.688" x2="61.041" y2="32.865"/>
		<rect x="60.41" y="14.688" width="1.263" height="18.177"/>
	</g>
	<g>
		<line fill="#FFFFFF" x1="57.693" y1="14.688" x2="57.693" y2="32.865"/>
		<rect x="57.062" y="14.688" width="1.263" height="18.177"/>
	</g>
	<g>
		<line fill="#FFFFFF" x1="34.255" y1="14.688" x2="34.255" y2="32.872"/>
		<rect x="33.623" y="14.688" width="1.264" height="18.183"/>
	</g>
	<g>
		<line fill="#FFFFFF" x1="30.907" y1="14.688" x2="30.907" y2="32.872"/>
		<rect x="30.275" y="14.688" width="1.263" height="18.183"/>
	</g>
	<g>
		<line fill="#FFFFFF" x1="27.558" y1="14.688" x2="27.558" y2="32.87"/>
		<rect x="26.926" y="14.688" width="1.263" height="18.182"/>
	</g>
</g>
<g>
	<path d="M40.287,44.653c-8.055,0-13.27-2.843-13.32-2.872l0.282-0.512c0.05,0.028,5.144,2.799,13.038,2.799V44.653z"/>
</g>
<g>
	<path d="M40.287,63.354c-8.055,0-13.27-2.843-13.32-2.872l0.282-0.511c0.05,0.028,5.144,2.8,13.038,2.8V63.354z"/>
</g>
<g>
	<path d="M40.287,119.462c-8.055,0-13.27-2.843-13.32-2.872l0.282-0.511c0.05,0.029,5.144,2.8,13.038,2.8V119.462z"/>
</g>
<g>
	<path d="M40.287,138.167c-8.055,0-13.27-2.847-13.32-2.876l0.282-0.512c0.053,0.029,5.146,2.8,13.038,2.8V138.167z"/>
</g>
<g>
	<path d="M40.287,100.765c-8.055,0-13.27-2.843-13.32-2.872l0.282-0.512c0.05,0.028,5.144,2.799,13.038,2.799V100.765z"/>
</g>
<g>
	<path d="M40.287,82.068c-8.055,0-13.27-2.844-13.32-2.872l0.282-0.511c0.05,0.028,5.144,2.799,13.038,2.799V82.068z"/>
</g>
<path fill="#FFFFFF" stroke="#000000" stroke-width="5.6693" stroke-miterlimit="10" d="M79.378,89.878
	c0,18.806-15.246,34.04-34.051,34.04c-18.797,0-34.042-15.234-34.042-34.04c0-18.793,15.245-34.046,34.042-34.046
	C64.132,55.833,79.378,71.085,79.378,89.878z"/>
</svg>
