<?xml version="1.0" encoding="utf-8"?>
<!-- Generator: Adobe Illustrator 16.0.0, SVG Export Plug-In . SVG Version: 6.00 Build 0)  -->
<!DOCTYPE svg PUBLIC "-//W3C//DTD SVG 1.1//EN" "http://www.w3.org/Graphics/SVG/1.1/DTD/svg11.dtd">
<svg version="1.1" id="Layer_1" xmlns="http://www.w3.org/2000/svg" xmlns:xlink="http://www.w3.org/1999/xlink" x="0px" y="0px"
	 width="30px" height="48px" viewBox="0 0 30 48" enable-background="new 0 0 30 48" xml:space="preserve">
<g>
	<rect x="7.446" y="5.954" fill="#FFFFFF" width="15.687" height="18.729"/>
</g>
<text transform="matrix(1 0 0 1 8.8779 12.0078)" opacity="0.2"><tspan x="0" y="0" font-family="'Helvetica-Bold'" font-size="4.3989">DRAG</tspan><tspan x="-0.49" y="5.278" font-family="'Helvetica-Bold'" font-size="4.3989">ICONS</tspan><tspan x="0.365" y="10.558" font-family="'Helvetica-Bold'" font-size="4.3989">HERE</tspan></text>
<g opacity="0.2">
	<g>
		<g>
			<g>
				<g>
					<g>
						<rect x="5.32" y="18.938" fill="none" width="4.252" height="3.619"/>
					</g>
					<rect x="7.295" y="19.206" fill-rule="evenodd" clip-rule="evenodd" width="0.425" height="0.672"/>
					<rect x="7.295" y="20.411" fill-rule="evenodd" clip-rule="evenodd" width="0.425" height="0.672"/>
					<rect x="7.295" y="21.612" fill-rule="evenodd" clip-rule="evenodd" width="0.425" height="0.672"/>
				</g>
			</g>
			<g>
				<g>
					<g>
						<rect x="5.32" y="15.319" fill="none" width="4.252" height="3.62"/>
					</g>
					<rect x="7.295" y="15.586" fill-rule="evenodd" clip-rule="evenodd" width="0.425" height="0.672"/>
					<rect x="7.295" y="16.791" fill-rule="evenodd" clip-rule="evenodd" width="0.425" height="0.672"/>
					<rect x="7.295" y="17.992" fill-rule="evenodd" clip-rule="evenodd" width="0.425" height="0.672"/>
				</g>
			</g>
			<g>
				<g>
					<g>
						<rect x="5.32" y="11.699" fill="none" width="4.252" height="3.62"/>
					</g>
					<rect x="7.295" y="11.967" fill-rule="evenodd" clip-rule="evenodd" width="0.425" height="0.672"/>
					<rect x="7.295" y="13.172" fill-rule="evenodd" clip-rule="evenodd" width="0.425" height="0.672"/>
					<rect x="7.295" y="14.373" fill-rule="evenodd" clip-rule="evenodd" width="0.425" height="0.672"/>
				</g>
			</g>
			<g>
				<g>
					<g>
						<rect x="5.32" y="8.08" fill="none" width="4.252" height="3.619"/>
					</g>
					<rect x="7.295" y="8.347" fill-rule="evenodd" clip-rule="evenodd" width="0.425" height="0.672"/>
					<rect x="7.295" y="9.552" fill-rule="evenodd" clip-rule="evenodd" width="0.425" height="0.672"/>
					<rect x="7.295" y="10.753" fill-rule="evenodd" clip-rule="evenodd" width="0.425" height="0.672"/>
				</g>
			</g>
			<g>
				<g>
					<g>
						<rect x="9.572" y="3.828" fill="none" width="3.812" height="4.252"/>
					</g>
					<rect x="12.394" y="5.804" fill-rule="evenodd" clip-rule="evenodd" width="0.708" height="0.425"/>
					<rect x="11.125" y="5.804" fill-rule="evenodd" clip-rule="evenodd" width="0.708" height="0.425"/>
					<rect x="9.86" y="5.804" fill-rule="evenodd" clip-rule="evenodd" width="0.708" height="0.425"/>
				</g>
			</g>
			<g>
				<g>
					<g>
						<rect x="13.383" y="3.828" fill="none" width="3.812" height="4.252"/>
					</g>
					<rect x="16.206" y="5.804" fill-rule="evenodd" clip-rule="evenodd" width="0.708" height="0.425"/>
					<rect x="14.937" y="5.804" fill-rule="evenodd" clip-rule="evenodd" width="0.708" height="0.425"/>
					<rect x="13.672" y="5.804" fill-rule="evenodd" clip-rule="evenodd" width="0.708" height="0.425"/>
				</g>
			</g>
			<g>
				<g>
					<g>
						<rect x="17.195" y="3.828" fill="none" width="3.812" height="4.252"/>
					</g>
					<rect x="20.018" y="5.804" fill-rule="evenodd" clip-rule="evenodd" width="0.708" height="0.425"/>
					<rect x="18.749" y="5.804" fill-rule="evenodd" clip-rule="evenodd" width="0.707" height="0.425"/>
					<rect x="17.484" y="5.804" fill-rule="evenodd" clip-rule="evenodd" width="0.707" height="0.425"/>
				</g>
			</g>
			<g>
				<g>
					<g>
						<rect x="21.007" y="8.08" fill="none" width="4.252" height="3.619"/>
					</g>
					<rect x="22.858" y="10.76" fill-rule="evenodd" clip-rule="evenodd" width="0.425" height="0.672"/>
					<rect x="22.858" y="9.555" fill-rule="evenodd" clip-rule="evenodd" width="0.425" height="0.672"/>
					<rect x="22.858" y="8.354" fill-rule="evenodd" clip-rule="evenodd" width="0.425" height="0.672"/>
				</g>
			</g>
			<g>
				<g>
					<g>
						<rect x="21.007" y="11.699" fill="none" width="4.252" height="3.62"/>
					</g>
					<rect x="22.858" y="14.379" fill-rule="evenodd" clip-rule="evenodd" width="0.425" height="0.672"/>
					<rect x="22.858" y="13.175" fill-rule="evenodd" clip-rule="evenodd" width="0.425" height="0.672"/>
					<rect x="22.858" y="11.974" fill-rule="evenodd" clip-rule="evenodd" width="0.425" height="0.672"/>
				</g>
			</g>
			<g>
				<g>
					<g>
						<rect x="21.007" y="15.319" fill="none" width="4.252" height="3.62"/>
					</g>
					<rect x="22.858" y="17.999" fill-rule="evenodd" clip-rule="evenodd" width="0.425" height="0.672"/>
					<rect x="22.858" y="16.794" fill-rule="evenodd" clip-rule="evenodd" width="0.425" height="0.672"/>
					<rect x="22.858" y="15.593" fill-rule="evenodd" clip-rule="evenodd" width="0.425" height="0.672"/>
				</g>
			</g>
			<g>
				<g>
					<g>
						<rect x="21.007" y="18.938" fill="none" width="4.252" height="3.619"/>
					</g>
					<rect x="22.858" y="21.619" fill-rule="evenodd" clip-rule="evenodd" width="0.425" height="0.672"/>
					<rect x="22.858" y="20.414" fill-rule="evenodd" clip-rule="evenodd" width="0.425" height="0.672"/>
					<rect x="22.858" y="19.212" fill-rule="evenodd" clip-rule="evenodd" width="0.425" height="0.672"/>
				</g>
			</g>
			<g>
				<g>
					<g>
						<rect x="17.195" y="22.558" fill="none" width="3.812" height="4.252"/>
					</g>
					<rect x="17.477" y="24.409" fill-rule="evenodd" clip-rule="evenodd" width="0.708" height="0.425"/>
					<rect x="18.746" y="24.409" fill-rule="evenodd" clip-rule="evenodd" width="0.707" height="0.425"/>
					<rect x="20.011" y="24.409" fill-rule="evenodd" clip-rule="evenodd" width="0.707" height="0.425"/>
				</g>
			</g>
			<g>
				<g>
					<g>
						<rect x="13.383" y="22.558" fill="none" width="3.812" height="4.252"/>
					</g>
					<rect x="13.665" y="24.409" fill-rule="evenodd" clip-rule="evenodd" width="0.708" height="0.425"/>
					<rect x="14.934" y="24.409" fill-rule="evenodd" clip-rule="evenodd" width="0.708" height="0.425"/>
					<rect x="16.199" y="24.409" fill-rule="evenodd" clip-rule="evenodd" width="0.707" height="0.425"/>
				</g>
			</g>
			<g>
				<g>
					<g>
						<rect x="9.572" y="22.558" fill="none" width="3.812" height="4.252"/>
					</g>
					<rect x="9.853" y="24.409" fill-rule="evenodd" clip-rule="evenodd" width="0.708" height="0.425"/>
					<rect x="11.122" y="24.409" fill-rule="evenodd" clip-rule="evenodd" width="0.708" height="0.425"/>
					<rect x="12.387" y="24.409" fill-rule="evenodd" clip-rule="evenodd" width="0.708" height="0.425"/>
				</g>
			</g>
			<g>
				<rect x="7.265" y="7.079" fill-rule="evenodd" clip-rule="evenodd" width="0.427" height="0.709"/>
				<polygon fill-rule="evenodd" clip-rule="evenodd" points="7.265,5.803 7.265,6.512 7.692,6.512 7.692,6.229 7.974,6.229 
					7.974,5.803 				"/>
				<rect x="8.541" y="5.803" fill-rule="evenodd" clip-rule="evenodd" width="0.708" height="0.425"/>
			</g>
			<g>
				<rect x="21.299" y="5.773" fill-rule="evenodd" clip-rule="evenodd" width="0.709" height="0.427"/>
				<polygon fill-rule="evenodd" clip-rule="evenodd" points="23.283,5.773 22.575,5.773 22.575,6.201 22.858,6.201 22.858,6.482 
					23.283,6.482 				"/>
				<rect x="22.858" y="7.049" fill-rule="evenodd" clip-rule="evenodd" width="0.425" height="0.708"/>
			</g>
			<g>
				<rect x="22.887" y="22.85" fill-rule="evenodd" clip-rule="evenodd" width="0.427" height="0.709"/>
				<polygon fill-rule="evenodd" clip-rule="evenodd" points="23.313,24.834 23.313,24.126 22.887,24.126 22.887,24.409 
					22.604,24.409 22.604,24.834 				"/>
				<rect x="21.329" y="24.409" fill-rule="evenodd" clip-rule="evenodd" width="0.709" height="0.425"/>
			</g>
			<g>
				<rect x="8.571" y="24.438" fill-rule="evenodd" clip-rule="evenodd" width="0.708" height="0.427"/>
				<polygon fill-rule="evenodd" clip-rule="evenodd" points="7.295,24.864 8.004,24.864 8.004,24.438 7.72,24.438 7.72,24.155 
					7.295,24.155 				"/>
				<rect x="7.295" y="22.88" fill-rule="evenodd" clip-rule="evenodd" width="0.425" height="0.709"/>
			</g>
		</g>
	</g>
</g>
<text transform="matrix(1 0 0 1 7.6279 27.5371)" opacity="0.3"><tspan x="0" y="0" font-family="'Helvetica'" font-size="1.8701">fill in circles below </tspan><tspan x="-0.624" y="1.9" font-family="'Helvetica'" font-size="1.8701">with letters/numbers</tspan><tspan x="3.117" y="3.8" font-family="'Helvetica'" font-size="1.8701">that match </tspan><tspan x="1.871" y="5.7" font-family="'Helvetica'" font-size="1.8701">your materials</tspan></text>
<path opacity="0.2" d="M11.888,36.222c-0.076-0.007-0.155-0.007-0.232-0.009c-0.033-0.002-0.066,0.002-0.097-0.002
	c-0.043-0.005-0.076-0.019-0.067-0.051c0.026-0.088,0.054-1.364,0.075-1.453c0.035-0.144,0.069-0.287,0.094-0.43
	c0.012-0.067-0.052-0.127-0.231-0.119c-0.105,0.003-0.21,0.008-0.315,0.011c-0.105-0.003-0.209-0.008-0.315-0.011
	c-0.18-0.008-0.243,0.052-0.231,0.119c0.024,0.143,0.06,0.286,0.094,0.43c0.021,0.089,0.049,1.365,0.075,1.453
	c0.009,0.032-0.023,0.046-0.066,0.051c-0.031,0.004-0.065,0-0.098,0.002c-0.078,0.002-0.155,0.002-0.232,0.009
	c-0.069,0.007-0.107,0.041-0.086,0.079c0.031,0.059,0.072,0.115,0.114,0.171c0.043,0.057,0.094,0.111,0.139,0.167
	c0.039,0.049,0.069,0.1,0.111,0.146c0.04,0.043,0.09,0.082,0.134,0.124c0.065,0.061,0.127,0.122,0.194,0.182
	c0.04,0.035,0.096,0.062,0.167,0.061c0.071,0.001,0.127-0.025,0.167-0.061c0.067-0.06,0.129-0.121,0.194-0.182
	c0.044-0.042,0.095-0.081,0.134-0.124c0.042-0.047,0.074-0.098,0.112-0.146c0.045-0.056,0.096-0.11,0.139-0.167
	c0.042-0.056,0.083-0.112,0.114-0.171C11.995,36.263,11.957,36.229,11.888,36.222z"/>
<path opacity="0.2" d="M19.817,36.221c-0.076-0.007-0.154-0.007-0.231-0.009c-0.032-0.002-0.066,0.002-0.097-0.002
	c-0.044-0.005-0.076-0.019-0.067-0.051c0.026-0.088,0.054-1.364,0.075-1.453c0.035-0.144,0.069-0.287,0.094-0.43
	c0.012-0.067-0.051-0.127-0.23-0.119c-0.105,0.003-0.211,0.008-0.315,0.011c-0.104-0.003-0.21-0.008-0.315-0.011
	c-0.18-0.008-0.242,0.052-0.23,0.119c0.023,0.143,0.059,0.286,0.094,0.43c0.021,0.089,0.049,1.365,0.075,1.453
	c0.009,0.032-0.023,0.046-0.066,0.051c-0.031,0.004-0.065,0-0.098,0.002c-0.077,0.002-0.155,0.002-0.231,0.009
	c-0.069,0.007-0.107,0.041-0.086,0.079c0.03,0.059,0.071,0.115,0.113,0.171c0.043,0.057,0.094,0.111,0.139,0.167
	c0.039,0.049,0.069,0.1,0.111,0.146c0.039,0.043,0.09,0.082,0.135,0.124c0.064,0.061,0.127,0.122,0.193,0.182
	c0.039,0.035,0.096,0.062,0.167,0.061c0.071,0.001,0.128-0.025,0.167-0.061c0.066-0.06,0.129-0.121,0.193-0.182
	c0.045-0.042,0.096-0.081,0.135-0.124c0.042-0.047,0.073-0.098,0.111-0.146c0.045-0.056,0.096-0.11,0.139-0.167
	c0.042-0.056,0.083-0.112,0.114-0.171C19.925,36.262,19.887,36.228,19.817,36.221z"/>
</svg>
